<?xml version="1.0" encoding="utf-8"?>
<!-- Generator: Adobe Illustrator 27.5.0, SVG Export Plug-In . SVG Version: 6.00 Build 0)  -->
<svg version="1.1" xmlns="http://www.w3.org/2000/svg" xmlns:xlink="http://www.w3.org/1999/xlink" x="0px" y="0px"
	 viewBox="0 0 500 500" style="enable-background:new 0 0 500 500;" xml:space="preserve">
<g id="BACKGROUND">
	<rect style="fill:none;" width="500" height="500"/>
</g>
<g id="OBJECTS">
	<path style="fill:#3887fa;" d="M449.933,470.124c0,3.06-89.219,5.54-199.277,5.54s-199.277-2.48-199.277-5.54
		c0-3.06,89.219-5.54,199.277-5.54S449.933,467.064,449.933,470.124z"/>
	<path style="fill:#3887fa;" d="M417.625,144.53l19.409,139.727c7.621,54.862-26.911,105.414-76.739,112.336l-176.454,24.511
		c-49.828,6.922-96.826-32.305-104.447-87.167L59.984,194.21c-2.315-16.667-0.742-32.934,3.973-47.702
		c4.319-13.544,11.277-25.828,20.294-35.994c13.516-15.25,31.657-25.752,52.467-28.643l176.454-24.511
		c17.991-2.499,35.61,1.019,51.138,9.106c6.113,3.186,11.901,7.081,17.259,11.597C400.323,93.859,413.837,117.262,417.625,144.53z"
		/>
	<path style="fill:#7ab0ff;" d="M148.372,171.466c5.392,38.819-21.707,74.662-60.527,80.055c-6.774,0.941-13.46,0.893-19.904-0.036
		l-7.956-57.276c-2.315-16.667-0.742-32.934,3.973-47.702c4.319-13.544,11.277-25.828,20.294-35.994
		C116.509,113.297,143.728,138.038,148.372,171.466z"/>
	<path style="fill:#7ab0ff;" d="M417.625,144.53l9.048,65.139c-1.087,0.197-2.182,0.372-3.285,0.525
		c-43.885,6.096-84.407-24.541-90.503-68.426c-4.163-29.966,8.807-58.365,31.425-75.303c6.113,3.186,11.901,7.081,17.259,11.597
		C400.323,93.859,413.837,117.262,417.625,144.53z"/>
	
		<ellipse transform="matrix(0.5966 -0.8025 0.8025 0.5966 -208.2299 261.2468)" style="fill:#7ab0ff;" cx="155.748" cy="337.75" rx="39.566" ry="39.566"/>
	
		<ellipse transform="matrix(0.6058 -0.7956 0.7956 0.6058 -132.6149 261.739)" style="fill:#7ab0ff;" cx="197.839" cy="264.704" rx="21.554" ry="21.554"/>
	
		<ellipse transform="matrix(0.9755 -0.2201 0.2201 0.9755 -73.2998 26.1096)" style="fill:#7ab0ff;" cx="80.509" cy="341.966" rx="21.554" ry="21.554"/>
	
		<ellipse transform="matrix(0.5694 -0.8221 0.8221 0.5694 -34.6137 230.1393)" style="fill:#7ab0ff;" cx="202.369" cy="148.11" rx="28.515" ry="28.515"/>
	<path style="fill:#7ab0ff;" d="M396.228,264.399c0.841,6.05-3.383,11.637-9.434,12.477c-6.051,0.84-11.637-3.383-12.477-9.434
		c-0.84-6.051,3.383-11.637,9.434-12.477C389.801,254.125,395.388,258.349,396.228,264.399z"/>
	<path style="fill:#7ab0ff;" d="M161.258,134.216c0.589,4.239-2.37,8.153-6.61,8.742c-4.239,0.589-8.153-2.37-8.742-6.61
		c-0.589-4.239,2.37-8.153,6.61-8.742C156.755,127.018,160.669,129.977,161.258,134.216z"/>
	<path style="fill:#7ab0ff;" d="M398.301,293.976c0.42,3.025-1.691,5.818-4.717,6.239c-3.025,0.42-5.818-1.692-6.239-4.717
		c-0.42-3.025,1.692-5.818,4.717-6.239C395.088,288.839,397.881,290.95,398.301,293.976z"/>
	<path style="fill:#7ab0ff;" d="M205.936,302c0.42,3.025-1.691,5.818-4.717,6.239c-3.025,0.42-5.818-1.692-6.239-4.717
		c-0.42-3.025,1.692-5.818,4.717-6.239C202.722,296.862,205.515,298.974,205.936,302z"/>
	<g>
		<g>
			<path style="fill:#020B2A;" d="M285.472,197.918c0.454,1.875,0.924,3.747,1.415,5.612c0.248,0.942,0.502,1.883,0.761,2.822
				c0.233,0.843,0.459,1.693,0.787,2.505c0.63,1.56,1.782,2.767,3.116,3.76c1.416,1.054,2.946,1.971,4.498,2.809
				c1.592,0.86,3.237,1.636,4.943,2.242c3.183,1.13,6.697,1.69,9.991,0.701c1.349-0.405,2.65-1.049,3.746-1.939
				c0.542-0.44,1.044-0.937,1.475-1.488c0.432-0.552,0.779-1.174,1.119-1.785l0.024-0.028c0.107-0.604,0.206-1.21,0.26-1.822
				c0.076-0.856,0.083-1.717,0.034-2.574c-0.179-3.137-1.069-6.185-2.102-9.136c-0.517-1.476-1.064-2.945-1.644-4.398
				c-0.269-0.675-0.557-1.342-0.888-1.989c-0.181-0.354-0.374-0.702-0.583-1.04c-0.027-0.043-0.055-0.086-0.083-0.129
				c0.028,0.177,0.057,0.354,0.082,0.531c0.337,2.428,0.364,4.885-0.043,7.307c-0.198,1.177-0.504,2.336-0.932,3.451
				c-0.211,0.55-0.449,1.091-0.715,1.616c-0.268,0.529-0.567,1.144-1.052,1.502c-0.255,0.188-0.551-0.123-0.495-0.38
				c0.072-0.33,0.265-0.629,0.421-0.927c0.15-0.286,0.305-0.568,0.446-0.858c0.278-0.569,0.518-1.155,0.724-1.754
				c0.755-2.2,1.052-4.526,1.016-6.846c-0.018-1.152-0.102-2.304-0.267-3.445c-0.138-0.956-0.333-1.9-0.502-2.85
				c-0.677,0.344-1.361,0.674-2.06,0.973c-4.242,1.814-8.816,2.807-13.428,2.922c-2.296,0.057-4.596-0.109-6.861-0.49
				c-1.128-0.19-2.247-0.435-3.35-0.737c-0.284-0.078-0.585-0.151-0.876-0.248c-0.003,0.187-0.006,0.373,0,0.559
				C284.51,194.25,285.031,196.097,285.472,197.918z"/>
			<path style="fill:#020B2A;" d="M314.223,172.196c0.294-1.244,0.36-2.515,0.297-3.789c-0.11-2.223-0.532-4.444-1.265-6.546
				c-0.698-2.001-1.719-3.916-3.099-5.531c-1.271-1.488-2.825-2.687-4.578-3.555c-3.436-1.702-7.502-2.087-11.229-1.251
				c-1.948,0.437-3.847,1.199-5.494,2.336c-0.853,0.589-1.648,1.305-2.257,2.148c-0.665,0.919-1.096,1.963-1.399,3.051
				c-0.316,1.137-0.506,2.306-0.71,3.467c-0.227,1.292-0.454,2.585-0.668,3.879c-0.425,2.568-0.801,5.145-1.04,7.737
				c-0.302,3.278-0.351,6.564-0.123,9.835c0.091,0.656,0.193,1.31,0.305,1.961c0.212,1.239,0.421,2.488,0.695,3.715
				c0.091,0.407,0.217,0.78,0.526,1.029c0.118,0.001,0.233,0.057,0.278,0.167c0.458,0.207,0.987,0.311,1.47,0.437
				c4.3,1.124,8.809,1.379,13.216,0.824c4.362-0.549,8.638-1.924,12.485-4.055c0.471-0.261,0.95-0.521,1.394-0.825
				c0.357-0.244,0.752-0.589,0.707-1.064c-0.029-0.298-0.179-0.59-0.287-0.866c-0.106-0.27-0.203-0.542-0.291-0.818
				c-0.182-0.568-0.326-1.147-0.433-1.733c-0.436-2.382-0.246-4.776,0.452-7.088C313.522,174.506,313.945,173.372,314.223,172.196z"
				/>
			<path style="fill:#020B2A;" d="M306.585,140.439c0.475,0.34,1.036,0.566,1.563,0.811c0.605,0.281,1.214,0.555,1.833,0.804
				c1.247,0.5,2.552,0.935,3.894,1.084c1.325,0.147,2.596-0.014,3.843-0.48c1.066-0.398,2.113-0.889,3.255-0.968
				c0.114-0.237,0.233-0.471,0.365-0.699c0.367-0.636,0.847-1.244,1.526-1.562c0.718-0.337,1.523-0.334,2.282-0.146
				c0.736,0.183,1.432,0.54,2.064,0.952c0.625,0.408,1.21,0.888,1.629,1.513c0.377,0.563,0.573,1.251,0.502,1.929
				c-0.019,0.176-0.052,0.352-0.104,0.521c1.19-0.059,2.252,0.596,3.433,0.653c2.148,0.105,4.123-1.041,5.799-2.262
				c0.86-0.626,1.689-1.296,2.561-1.907c0.844-0.592,1.774-1.248,2.795-1.471c0.277-0.06,0.47,0.173,0.451,0.397
				c0.695,0.354,1.311,0.932,1.831,1.485c1.158,1.232,2.025,2.701,2.763,4.213c0.179,0.366,0.351,0.734,0.517,1.106
				c0.16,0.358,0.301,0.734,0.523,1.06c0.215,0.317,0.471,0.426,0.846,0.439c0.361,0.012,0.691,0.029,0.988,0.199
				c0.151-0.01,0.303-0.016,0.454-0.031c2.163-0.214,4.268-0.989,6.074-2.192c0.437-0.291,0.855-0.608,1.252-0.952
				c0.396-0.344,0.808-0.706,1.062-1.171c0.462-0.846-0.079-1.624-0.725-2.171c-0.788-0.668-1.769-1.104-2.654-1.624
				c-1.008-0.591-1.996-1.214-2.965-1.868c-1.926-1.301-3.773-2.723-5.523-4.252c-1.782-1.557-3.448-3.233-5.029-4.992
				c-1.663-1.85-3.259-3.763-5.009-5.533c-3.07-3.105-6.886-5.954-11.388-6.302c-2.117-0.163-4.293,0.216-6.117,1.341
				c-1.801,1.111-3.025,2.791-4.36,4.38c0.041,0.119-0.013,0.277-0.154,0.336c-0.59,0.247-1.211,0.408-1.806,0.648
				c-0.588,0.238-1.155,0.533-1.698,0.861c-1.084,0.656-2.059,1.479-2.911,2.415c-1.652,1.816-2.758,4.048-3.433,6.396
				c-0.358,1.243-0.597,2.521-0.726,3.808c-0.063,0.629-0.107,1.263-0.12,1.895C305.958,139.679,306.106,140.094,306.585,140.439z"
				/>
			<path style="fill:#020B2A;" d="M302.017,145.765c1.793,1.161,3.515,2.388,4.98,3.955c0.685,0.733,1.307,1.521,1.868,2.352
				c0.545,0.807,1.157,1.719,1.399,2.669c0.026,0.101-0.025,0.199-0.101,0.262c2.591,2.675,4.148,6.262,4.838,9.905
				c0.467,2.466,0.675,5.063,0.093,7.527c-0.228,0.964-0.552,1.901-0.854,2.844c0.484,1.539,1.261,2.989,2.298,4.228
				c0.445,0.532,0.945,1.12,1.529,1.505c0.61,0.404,1.296,0.386,1.968,0.152c1.437-0.5,2.566-1.769,3.573-2.853
				c0.573-0.617,1.143-1.236,1.714-1.855c0.491-0.531,1.004-1.206,1.803-1.183c0.411,0.012,0.753,0.218,1.131,0.345
				c0.139,0.047,0.447,0.141,0.575,0.016c0.106-0.104,0.031-0.376,0.017-0.505c-0.019-0.188-0.039-0.377-0.058-0.565
				c-0.047-0.452-0.093-0.904-0.14-1.356c-0.02-0.189,0.151-0.369,0.319-0.419c0.52-0.154,0.986,0.077,1.414,0.357
				c0.39,0.255,0.767,0.549,1.212,0.232c0.253-0.181,0.449-0.445,0.64-0.686c0.235-0.295,0.47-0.59,0.706-0.884
				c0.469-0.583,0.911-1.211,1.454-1.726c0.059-0.056,0.125-0.08,0.191-0.085c-0.162-0.202-0.306-0.419-0.424-0.655
				c-0.255-0.512,0.515-0.963,0.769-0.45c0.566,1.143,1.85,1.837,3.112,1.68c0.172-1.861,0.716-3.654,1.42-5.383
				c0.332-0.817,0.693-1.621,1.063-2.422c0.334-0.724,0.618-1.511,1.295-1.989c0.328-0.232,0.712-0.382,1.077-0.547
				c0.44-0.2,0.88-0.398,1.32-0.597c0.357-0.161,0.781-0.298,1.086-0.551c0.295-0.245,0.396-0.673,0.529-1.017
				c0.635-1.643,1.352-3.253,2.142-4.828c0.402-0.803,0.823-1.596,1.262-2.379c0.357-0.639,0.723-1.28,1.128-1.892
				c-0.083-0.055-0.145-0.132-0.174-0.223c-0.444-0.108-0.784-0.42-1.039-0.785c-0.226-0.323-0.372-0.693-0.531-1.051
				c-0.172-0.385-0.347-0.769-0.531-1.149c-0.368-0.761-0.766-1.508-1.219-2.223c-0.433-0.685-0.913-1.339-1.466-1.931
				c-0.522-0.559-1.129-1.002-1.693-1.508c-0.405,0.225-0.817,0.438-1.215,0.678c-0.515,0.312-1.011,0.656-1.497,1.012
				c-1.768,1.293-3.463,2.714-5.568,3.431c-1.016,0.346-2.082,0.489-3.147,0.329c-1.085-0.163-2.086-0.845-3.191-0.848l-0.075-0.014
				l-0.006,0.012c-0.086,0.139-0.19,0.275-0.307,0.39l-0.103,0.09c0.033,0.075,0.048,0.156,0.034,0.233
				c-0.076,0.43-0.652,0.491-0.917,0.203c-0.307-0.334-0.126-0.763,0.172-1.02c0.519-0.448,0.665-1.082,0.479-1.739
				c-0.186-0.657-0.706-1.182-1.24-1.579c-0.59-0.439-1.252-0.822-1.954-1.046c-0.654-0.209-1.402-0.306-2.03,0.037
				c-0.641,0.351-1.019,1.03-1.342,1.658l-0.035,0.074c0.055,0.212-0.028,0.458-0.251,0.536c-0.534,1.227-0.835,2.562-0.883,3.896
				c-0.028,0.789,0.039,1.568,0.172,2.346c0.125,0.73,0.279,1.612-0.193,2.254c-0.171,0.233-0.559,0.102-0.482-0.203
				c0.234-0.929-0.059-1.808-0.181-2.731c-0.116-0.877-0.13-1.764-0.036-2.644c0.102-0.961,0.32-1.911,0.654-2.817
				c-1.205,0.206-2.319,0.853-3.495,1.173c-1.534,0.417-3.148,0.329-4.684-0.028c-1.409-0.328-2.757-0.876-4.072-1.47
				c-0.603-0.273-1.22-0.538-1.799-0.86c-0.071-0.039-0.14-0.085-0.21-0.129c-0.084,0.187-0.253,0.305-0.424,0.416
				c-0.793,0.511-1.65,0.929-2.541,1.239c-1.44,0.501-2.938,0.71-4.444,0.637c0.125,0.098,0.249,0.199,0.376,0.294
				C300.16,144.57,301.09,145.166,302.017,145.765z"/>
			<path style="fill:#020B2A;" d="M146.459,250.374c0.388,0.181,0.978,0.065,1.37-0.042c0.977-0.267,1.827-0.883,2.646-1.455
				c0.873-0.611,1.729-1.246,2.564-1.908c0.822-0.652,1.626-1.328,2.41-2.026c0.405-0.361,0.805-0.727,1.199-1.1
				c0.38-0.359,0.731-0.751,1.173-1.034c0.3-0.193,0.687,0.193,0.493,0.493c-0.241,0.371-0.564,0.687-0.894,0.991l-0.051,0.083
				c-1.617,1.788-3.37,3.442-5.042,5.179c-1.41,1.464-2.781,2.975-3.961,4.633c-0.256,0.36-0.639,0.788-0.699,1.242
				c-0.049,0.374,0.293,0.558,0.623,0.547c0.434-0.014,0.825-0.305,1.172-0.539c0.393-0.266,0.78-0.539,1.162-0.819
				c2.967-2.179,5.602-4.821,7.793-7.78c0.188-0.33,0.387-0.653,0.606-0.965c0.222-0.316,0.454-0.624,0.691-0.929
				c0.117-0.151,0.238-0.299,0.361-0.445c0.138-0.164,0.257-0.315,0.471-0.382c0.305-0.096,0.523,0.202,0.476,0.476
				c-0.037,0.218-0.221,0.378-0.358,0.54c-0.116,0.138-0.23,0.277-0.344,0.417c-0.212,0.26-0.417,0.525-0.615,0.795
				c-0.063,0.086-0.127,0.173-0.19,0.259c0.011,0.083-0.002,0.172-0.068,0.263c-0.337,0.468-0.685,0.928-1.042,1.38
				c0.146,0.053,0.25,0.21,0.15,0.395c-0.879,1.615-1.775,3.227-2.606,4.868c-0.376,0.742-0.736,1.492-1.082,2.248
				c-0.335,0.733-0.714,1.476-0.963,2.244c-0.158,0.49-0.2,1.439,0.578,1.337c0.682-0.089,1.149-0.89,1.535-1.381
				c2.048-2.6,3.964-5.304,5.751-8.09l-0.072-0.063c-0.52-0.564-0.47-1.383-0.159-2.036c0.352-0.739,1.082-1.15,1.789-1.493
				c0.617-0.299,1.208-0.596,1.696-1.087c0.828-0.834,1.294-1.957,1.68-3.048c0.776-2.194,1.344-5.035,3.568-6.251
				c0.457-0.25,0.82,0.399,0.403,0.689c-0.213,0.148-0.411,0.316-0.599,0.495c-1.662,1.586-2.005,4.063-2.834,6.107
				c-0.43,1.06-0.981,2.109-1.859,2.869c-0.535,0.463-1.152,0.752-1.78,1.064c-0.609,0.303-1.239,0.671-1.383,1.391
				c-0.309,1.548,2.536,0.848,3.265,0.596c1.434-0.495,2.691-1.433,3.818-2.427c1.22-1.077,2.379-2.247,3.474-3.45
				c1.114-1.223,2.129-2.553,2.814-4.068c0.744-1.643,1.098-3.452,1.542-5.192c0.468-1.83,0.854-3.711,1.536-5.475
				c0.016-0.042,0.045-0.073,0.077-0.1c0.032-0.167,0.059-0.334,0.094-0.5c0.148-0.689,0.326-1.373,0.541-2.044
				c0.234-0.728,0.512-1.43,0.832-2.114c-0.04-0.07-0.051-0.157,0.002-0.251c1.464-2.55,2.9-5.123,4.284-7.718
				c2.473-4.635,4.732-9.378,6.775-14.218c1.021-2.42,1.983-4.865,2.888-7.331c0.447-1.217,0.882-2.437,1.302-3.663
				c0.216-0.63,0.427-1.261,0.636-1.893c0.109-0.332,0.226-0.664,0.325-0.999c0.023-0.077,0.046-0.153,0.053-0.233l0.001-0.146
				l0.004,0.002l-0.032-0.025c-0.298-0.239,0.024-0.786,0.378-0.649c0.139,0.053,0.236,0.127,0.316,0.21
				c0.467-0.228,0.978-0.304,1.479-0.429c0.495-0.123,0.984-0.269,1.466-0.436c0.784-0.271,1.545-0.6,2.281-0.979
				c-2.836-4.104-4.271-9.133-4.214-14.108c0.024-2.08,0.313-4.164,0.868-6.171c-0.158,0.084-0.315,0.167-0.473,0.251
				c-1.962,1.04-3.924,2.081-5.885,3.122c-1.84,0.976-3.769,1.876-5.467,3.093c-1.609,1.154-2.745,2.715-3.658,4.453
				c-0.984,1.873-1.805,3.84-2.598,5.799c-1.658,4.098-3.16,8.264-4.697,12.409c-1.497,4.037-2.973,8.087-4.237,12.204
				c-0.63,2.052-1.203,4.123-1.705,6.21c-0.249,1.034-0.467,2.073-0.682,3.115c-0.106,0.517-0.217,1.033-0.325,1.55
				c0.031,0.047,0.052,0.101,0.046,0.17c-0.134,1.495-0.505,2.924-1.06,4.319c-0.25,0.628-0.525,1.247-0.882,1.821
				c-0.253,0.406-0.553,0.849-0.925,1.18c-0.938,1.399-2.076,2.667-3.258,3.861c-2.568,2.592-5.443,4.848-8.305,7.102
				c-1.439,1.133-2.877,2.269-4.278,3.45c-0.691,0.583-1.376,1.174-2.041,1.787c-0.54,0.499-1.249,1.207-1.163,2.007
				c1.344,0.644,2.927-0.34,4.016-1.104c1.56-1.094,3.086-2.241,4.625-3.364c0.427-0.312,0.835,0.4,0.414,0.708
				c-0.162,0.118-0.323,0.237-0.485,0.356c-1.028,1.634-2.431,3.004-3.83,4.321c-1.334,1.255-2.706,2.477-3.926,3.846
				c-0.604,0.679-1.178,1.395-1.664,2.164C146.456,249.725,146.134,250.223,146.459,250.374z"/>
			<path style="fill:#020B2A;" d="M200.373,179.009c0.394,1.146,0.878,2.258,1.449,3.327c0.281,0.525,0.581,1.04,0.903,1.541
				c0.162,0.253,0.326,0.517,0.501,0.772c0.194,0.053,0.329,0.247,0.33,0.444c0.063,0.079,0.126,0.159,0.193,0.233
				c0.465,0.509,1.183,0.203,1.754,0.06c0.753-0.188,1.505-0.377,2.258-0.565c1.487-0.372,2.974-0.744,4.461-1.116
				c1.326-0.332,2.666-0.632,3.969-1.043c1.149-0.363,2.281-0.845,3.233-1.595c0.061-0.277,0.124-0.554,0.183-0.832
				c0.462-2.154,0.904-4.316,1.554-6.424c0.621-2.015,1.434-3.967,2.342-5.868c1.828-3.824,3.949-7.546,6.118-11.186
				c1.456-2.444,3.047-4.911,4.925-7.098c-4.788,1.898-9.84,3.105-14.827,4.34c-2.7,0.669-5.4,1.34-8.073,2.111
				c-1.358,0.392-2.709,0.81-4.048,1.265c-1.265,0.43-2.559,0.854-3.766,1.429c-0.568,0.271-1.117,0.593-1.567,1.037
				c-0.463,0.456-0.797,1.019-1.082,1.599c-0.36,0.732-0.659,1.497-0.918,2.273c0.026,0.13-0.013,0.262-0.121,0.364
				c-0.086,0.275-0.169,0.55-0.245,0.826c-0.639,2.304-0.907,4.697-0.825,7.085C199.155,174.377,199.595,176.748,200.373,179.009z"
				/>
			<path style="fill:#020B2A;" d="M227.723,161.909c-2.04,3.657-4.092,7.347-5.43,11.331c-0.867,2.582-1.381,5.254-1.96,7.911
				c0.051,0.128,0.033,0.273-0.089,0.397c-0.312,1.411-0.646,2.817-1.069,4.199c-1.214,3.965-3.064,7.699-4.993,11.357
				c-4.054,7.687-8.02,15.403-11.645,23.304c-0.918,2.002-1.82,4.011-2.704,6.029c-0.439,1.002-0.879,2.004-1.304,3.012
				c-0.401,0.951-0.84,2.033-0.644,3.084c0.297,1.596,1.898,2.379,3.312,2.79c1.914,0.556,3.968,0.731,5.942,0.949
				c4.379,0.482,8.783,0.663,13.184,0.806c4.546,0.147,9.092,0.283,13.639,0.424c4.492,0.139,8.983,0.278,13.475,0.418
				c2.28,0.071,4.56,0.141,6.84,0.212c2.144,0.066,4.332,0.201,6.398-0.49c3.2-1.071,6.167-3.721,9.751-2.845
				c0.984,0.241,2.02,0.768,3.052,0.519c0.864-0.208,1.513-0.947,1.965-1.671c0.986-1.579,1.349-3.437,1.704-5.237
				c0.349-1.765,0.701-3.551,1.538-5.162c0.834-1.604,2.074-2.953,3.338-4.226c2.525-2.544,5.999-5.652,5.349-9.65
				c-0.029-0.176,0.039-0.314,0.143-0.413c-0.091-0.239-0.176-0.479-0.254-0.721c-0.602-1.878-1.06-3.811-1.546-5.722
				c-0.494-1.943-0.961-3.892-1.403-5.848c-0.375-1.66-0.813-3.456-0.545-5.169l-0.046-0.025c-0.474-0.32-0.735-0.823-0.881-1.363
				c-0.164-0.611-0.256-1.247-0.374-1.869c-0.123-0.65-0.243-1.301-0.355-1.954c-0.225-1.307-0.42-2.62-0.553-3.94
				c-0.266-2.643-0.233-5.275,0.299-7.883c0.015-0.075,0.047-0.132,0.086-0.179c0.12-1.463,0.28-2.924,0.478-4.384
				c0.366-2.694,0.83-5.373,1.297-8.051c0.406-2.323,0.858-4.692,2.343-6.598c1.351-1.733,3.291-2.91,5.3-3.735
				c1.881-0.772,3.904-1.199,5.934-1.299c4.025-0.199,8.148,0.93,11.349,3.415c0.222,0.172,0.437,0.35,0.647,0.534
				c-0.112-0.183-0.223-0.367-0.339-0.547c-0.293-0.453-0.593-0.902-0.914-1.336c-0.648-0.874-1.373-1.699-2.152-2.459
				c-1.483-1.447-3.212-2.556-4.942-3.679c-1.786-1.16-3.448-2.426-4.959-3.93c-1.47-1.464-2.783-3.076-4.241-4.551
				c-0.598-0.605-1.354-1.276-2.26-1.261c-0.461,0.008-0.883,0.216-1.27,0.448c-0.224,0.134-0.433,0.291-0.657,0.425
				c-0.223,0.133-0.471,0.218-0.718,0.297c-0.326,0.105-0.503-0.308-0.31-0.533l0.059-0.061c-1.709,0.313-3.419,0.621-5.131,0.916
				c-4.35,0.749-8.721,1.404-13.116,1.827c-2.169,0.209-4.346,0.316-6.513,0.545c-2.169,0.23-4.273,0.671-6.342,1.366
				c-1.968,0.661-3.887,1.461-5.866,2.091c-1.97,0.627-3.96,0.89-5.99,1.228c-2.003,0.333-3.785,1.032-5.378,2.307
				c-0.228,0.182-0.449,0.372-0.667,0.566c0.142,0.124,0.175,0.392-0.026,0.497c-0.335,0.176-0.675,0.34-1.017,0.498
				c-0.846,0.866-1.627,1.802-2.365,2.752C231.68,154.788,229.701,158.364,227.723,161.909z"/>
			<path style="fill:#020B2A;" d="M118.594,440.319c-0.25-0.843-0.531-1.676-0.824-2.505c-0.696-1.97-1.294-3.982-1.616-6.049
				c-0.344-2.21-0.276-4.429-0.257-6.658c0.019-2.282,0.03-4.566-0.094-6.845c-0.22-4.037-0.989-8.073-3.255-11.499
				c-1.11-1.677-2.584-3.128-4.353-4.103c-0.853-0.47-1.735-0.685-2.692-0.837c-0.819-0.13-1.637-0.243-2.39-0.592
				c-0.439,0.566-0.766,1.219-0.956,1.944c-0.201,0.762-0.28,1.554-0.409,2.33c-0.04,0.24-0.085,0.48-0.136,0.718
				c0.103,0.136,0.143,0.319,0.045,0.492c-0.042,0.074-0.093,0.141-0.148,0.204c-0.38,0.555-0.285,1.401-0.166,2.015
				c0.166,0.858,0.503,1.667,0.758,2.5c0.129,0.421,0.234,0.848,0.295,1.285c0.065,0.466,0.07,0.937,0.127,1.404
				c0.119,0.969,0.349,1.92,0.456,2.891c0.108,0.974,0.039,1.947-0.088,2.916c-0.132,1.008-0.323,2.008-0.445,3.017
				c-0.123,1.013-0.221,2.029-0.367,3.039c-0.29,2.011-0.76,3.98-1.141,5.973c-0.75,3.92-1.133,7.957-1.038,11.95
				c0.082,3.444,0.959,6.772,2.742,9.73c0.439,0.729,0.905,1.436,1.499,2.048c0.602,0.62,1.281,1.16,1.981,1.664
				c0.699,0.504,1.42,0.978,2.128,1.468c0.652,0.451,1.318,0.948,2.071,1.217c1.396,0.499,2.935-0.081,4.015-1.017
				c1.018-0.882,1.68-2.078,2.225-3.292c0.593-1.322,1.112-2.689,1.645-4.037c0.572-1.448,0.977-2.96,1.219-4.498
				c-0.096,0.044-0.198,0.081-0.307,0.11c-0.516,0.137-0.734-0.661-0.22-0.797c-0.088,0.023,0.027-0.008,0.054-0.023l0.094-0.058
				l0.036-0.033l0.077-0.082l0.042-0.047l0-0.001l0.063-0.101l0.051-0.102l0.027-0.072c0.031-0.095,0.057-0.191,0.078-0.289
				c0.031-0.152,0.027-0.129,0.038-0.247c0.05-0.527,0.014-1.061-0.052-1.586C119.259,442.686,118.938,441.475,118.594,440.319z"/>
			<path style="fill:#020B2A;" d="M127.979,414.236c-1.685-0.023-2.994-1.574-3.728-2.944c-0.705-1.318-0.969-2.788-1.251-4.239
				c-0.271-1.391-0.581-2.827-1.447-3.984c-0.502-0.671-1.179-1.219-1.753-1.829c-0.612-0.651-1.197-1.326-1.766-2.015
				c-0.487-0.591-0.918-1.213-1.374-1.827c-0.383-0.516-0.825-0.984-1.383-1.305c-0.236,0.243-0.438,0.511-0.571,0.824
				c-0.127,0.298-0.578,0.077-0.505-0.213l0.008-0.024c-0.608,0.352-1.283,0.608-1.946,0.83c-2.499,0.839-5.307,0.977-7.603,2.357
				c-0.352,0.212-0.672,0.458-0.962,0.73c0.249,0.072,0.503,0.13,0.758,0.181c0.958,0.191,1.945,0.243,2.884,0.529
				c0.978,0.299,1.881,0.86,2.693,1.472c1.669,1.258,2.996,2.866,4.002,4.694c2.09,3.797,2.612,8.089,2.741,12.355
				c0.072,2.358,0.03,4.718,0.014,7.077c-0.008,1.128-0.02,2.254,0.086,3.379c0.103,1.095,0.298,2.18,0.552,3.25
				c0.635,2.676,1.734,5.206,2.41,7.87c0.023-0.226,0.05-0.452,0.083-0.678c0.276-1.876,0.794-3.707,1.303-5.53
				c0.527-1.887,1-3.787,1.524-5.675c0.555-2.002,1.14-3.996,1.733-5.987c0.566-1.904,1.439-3.66,2.368-5.41
				c0.363-0.684,0.796-1.362,1.041-2.1c0.193-0.582,0.196-1.189,0.128-1.791C128.003,414.232,127.992,414.236,127.979,414.236z"/>
			<path style="fill:#020B2A;" d="M149.116,377.445c-0.041-0.037-0.068-0.083-0.084-0.135c-0.032-0.063-0.061-0.13-0.089-0.196
				c-0.114-0.13-0.204-0.274-0.256-0.441c-0.121-0.175-0.251-0.342-0.393-0.5c-0.494-0.545-1.056-1.027-1.628-1.488
				c-1.104-0.891-2.204-1.78-3.283-2.702c-1.229-1.049-2.476-2.089-3.868-2.918c-1.373-0.818-2.856-1.303-4.431-1.552
				c-0.832-0.132-1.656-0.181-2.496-0.099c-0.413,0.04-0.777,0.143-1.159,0.296c-0.045,0.147-0.147,0.278-0.3,0.302
				c-0.797,0.125-1.108,1.134-1.377,1.778c-0.49,1.172-1.139,2.268-1.628,3.442c-0.93,2.23-1.805,4.483-2.73,6.715
				c-0.923,2.226-1.929,4.402-3.016,6.553c-0.528,1.044-1.053,2.091-1.636,3.107c-0.589,1.026-1.25,1.999-1.959,2.946
				c-0.653,0.872-1.349,1.733-2.187,2.435c-0.248,0.208-0.52,0.41-0.783,0.623c0.59,0.257,1.052,0.779,1.44,1.277
				c0.52,0.668,1.014,1.347,1.561,1.995c0.575,0.68,1.168,1.345,1.788,1.985c0.578,0.595,1.217,1.135,1.712,1.805
				c0.859,1.162,1.219,2.593,1.503,3.986c0.286,1.404,0.514,2.863,1.193,4.143c0.571,1.077,1.617,2.513,2.971,2.53
				c0.121,0.001,0.21,0.047,0.281,0.11c1.099-0.954,2.093-2.063,2.881-3.285c0.869-1.347,1.449-2.788,1.724-4.368
				c0.248-1.426,0.304-2.876,0.499-4.309c0.097-0.709,0.206-1.436,0.449-2.111c0.241-0.668,0.583-1.301,0.949-1.908
				c0.797-1.322,1.577-2.655,2.443-3.933c0.859-1.267,1.794-2.48,2.696-3.716c0.908-1.245,1.845-2.455,2.905-3.574
				c1.065-1.125,2.186-2.2,3.188-3.384c0.973-1.15,1.95-2.3,2.773-3.565c0.201-0.309,0.419-0.625,0.55-0.972
				c0.077-0.204,0.161-0.481,0.079-0.699C149.272,377.597,149.184,377.533,149.116,377.445z"/>
			<path style="fill:#020B2A;" d="M187.324,328.16c-3.288-1.08-6.654-1.984-9.763-3.529c-2.585-1.285-5.044-2.819-7.57-4.215
				c-1.254-0.693-2.58-1.432-3.742-2.345c-0.072,0.295-0.148,0.589-0.236,0.88c-1.156,3.842-3.411,7.333-6.016,10.354
				c-2.535,2.939-5.724,5.116-8.938,7.24c-1.727,1.141-3.475,2.272-5.031,3.643c-0.752,0.662-1.453,1.376-2.053,2.18
				c-0.606,0.811-1.143,1.67-1.688,2.523c-1.15,1.798-2.401,3.527-3.538,5.334c-1.159,1.842-2.258,3.725-3.246,5.664
				c-1.015,1.993-1.827,4.052-2.594,6.151c-0.326,0.891-0.63,1.785-0.929,2.685c-0.222,0.667-0.461,1.338-0.899,1.884
				c-0.002,0.133-0.021,0.262-0.062,0.385c0.148-0.064,0.296-0.129,0.446-0.188c0.442-0.174,0.913-0.23,1.384-0.268
				c0.953-0.075,1.908,0.04,2.846,0.208c1.61,0.289,3.115,0.85,4.509,1.707c1.403,0.863,2.673,1.924,3.926,2.988
				c1.092,0.926,2.212,1.813,3.32,2.719c0.521,0.426,1.032,0.872,1.484,1.371c0.261,0.288,0.525,0.612,0.717,0.967
				c1.205-1.186,2.484-2.288,3.793-3.36c2.689-2.201,5.369-4.391,7.596-7.077c1.117-1.347,2.184-2.775,3.072-4.286
				c0.379-0.645,0.731-1.307,1.136-1.938c0.219-0.342,0.458-0.694,0.731-1.012c0.307-0.484,0.748-0.856,1.214-1.198
				c0.54-0.396,1.122-0.724,1.707-1.047c0.585-0.323,1.176-0.639,1.737-1.003c0.603-0.391,1.145-0.86,1.686-1.332
				c2.24-1.958,4.278-4.132,6.506-6.103c2.367-2.094,4.72-4.205,7.072-6.316c2.242-2.012,4.456-4.062,6.739-6.028
				c1.529-1.317,3.381-2.729,4.096-4.69c-1.459-0.293-2.883-0.745-4.291-1.225C190.74,329.302,189.035,328.722,187.324,328.16z"/>
			<path style="fill:#020B2A;" d="M305.853,293.578c1.687-2.799,3.344-5.638,5.247-8.297c0.951-1.329,1.941-2.63,2.897-3.957
				c0.892-1.239,1.563-2.566,2.157-3.97c0.56-1.322,1.081-2.663,1.792-3.913c0.611-1.074,1.682-2.485,1.162-3.783
				c-0.236-0.591-0.703-1.074-1.086-1.571c-0.402-0.521-0.77-1.066-1.138-1.611c-0.733-1.085-1.474-2.186-2.498-3.023
				c-1.186-0.969-2.749-1.47-4.175-1.97c-1.536-0.538-3.095-1.008-4.621-1.574c-1.34-0.497-2.539-1.095-3.673-1.972
				c-1.112-0.86-2.121-1.84-3.199-2.74c-1.096-0.916-2.31-1.688-3.496-2.481c-1.265-0.846-2.536-1.683-3.789-2.547
				c-2.421-1.669-4.818-3.431-6.866-5.553c-0.513-0.531-0.934-0.986-1.66-1.208c-0.605-0.185-1.219-0.324-1.75-0.689
				c-1.069-0.733-1.672-1.943-2.496-2.91c-0.368-0.432-0.759-0.862-1.023-1.368c-0.249-0.478-0.369-0.991-0.439-1.522
				c-0.066-0.499-0.055-1.04-0.221-1.519c-0.184-0.53-0.634-0.551-1.135-0.491c-0.082,0.01-0.144-0.01-0.197-0.04
				c-0.844,0.964-1.968,1.567-3.369,1.351c-0.999-0.154-1.925-0.624-2.94-0.695c-0.877-0.061-1.738,0.108-2.567,0.387
				c-1.726,0.579-3.283,1.563-4.96,2.258c-1.977,0.819-4.022,0.957-6.141,0.904c-9.279-0.235-18.556-0.574-27.833-0.861
				c-4.572-0.142-9.149-0.241-13.717-0.488c-2.298-0.124-4.593-0.292-6.881-0.541c-1.997-0.217-4.062-0.401-6.009-0.916
				c-1.001-0.265-2.036-0.672-2.85-1.335c-0.035,0.168-0.157,0.316-0.351,0.292c-0.55-0.067-1.082,0.005-1.385,0.519
				c-0.285,0.483-0.288,1.133-0.215,1.671c0.061,0.455,0.215,0.895,0.181,1.359c-0.048,0.657-0.412,1.208-0.679,1.793
				c-0.644,1.411-0.918,2.943-1.247,4.448c-0.727,3.331-1.968,6.539-3.019,9.777c-0.526,1.621-1.023,3.253-1.431,4.908
				c-0.337,1.368-0.757,2.688-1.424,3.935c-0.66,1.234-1.565,2.279-2.312,3.453c-0.221,0.347-0.332,0.64-0.3,1.051
				c0.043,0.56,0.163,1.116,0.125,1.681c-0.049,0.728-0.34,1.396-0.667,2.039c-0.376,0.739-0.744,1.478-1.094,2.229
				c-0.725,1.555-1.425,3.122-2.127,4.687c-1.383,3.082-2.778,6.163-4.387,9.135c-1.645,3.039-3.556,5.921-5.324,8.889
				c-1.749,2.936-3.109,6.07-4.724,9.078c-1.199,2.233-2.987,4.394-3.53,6.913c-0.51,2.369,1.509,4.023,3.271,5.214
				c2.004,1.354,4.198,2.433,6.287,3.649c1.413,0.823,2.835,1.632,4.306,2.347c1.517,0.737,3.078,1.293,4.681,1.808
				c3.349,1.077,6.684,2.191,10.018,3.315c1.603,0.54,3.233,1.052,4.913,1.286c1.355,0.188,2.635,0.199,3.814-0.569
				c0.986-0.642,1.729-1.617,2.34-2.606c0.668-1.081,1.231-2.244,1.707-3.421c0.622-1.538,1.096-3.13,1.609-4.706
				c0.458-1.411,0.883-2.938,1.686-4.2c1.358-2.134,3.643-3.377,5.718-4.7c1.142-0.728,2.171-1.568,3.235-2.401
				c1.207-0.946,2.44-1.86,3.632-2.826c1.189-0.964,2.339-1.982,3.36-3.125c1.119-1.251,2.098-2.63,3.093-3.98
				c1.254-1.702,2.559-3.357,3.901-4.985c-0.048-0.112-0.039-0.242,0.079-0.339c0.247-0.203,0.485-0.415,0.72-0.629
				c0.503-0.599,1.011-1.194,1.525-1.785c0.114-0.131,0.25-0.159,0.375-0.133c0.153-0.156,0.302-0.315,0.463-0.462
				c0.542-0.494,1.136-0.927,1.718-1.372c0.28-0.213,0.557-0.43,0.824-0.659c0.149-0.128,0.291-0.264,0.436-0.395
				c-0.606-0.487-1.206-0.982-1.812-1.469c-2.396-1.927-5.049-3.927-8.004-4.897c-0.491-0.161-0.28-0.939,0.214-0.777
				c1.406,0.462,2.706,1.044,3.97,1.82c2.64,1.622,4.927,3.695,7.39,5.558c2.56,1.936,5.519,3.223,8.329,4.746
				c2.902,1.573,5.64,3.345,8.31,5.284c1.321,0.96,2.616,1.967,3.987,2.856c1.336,0.866,2.741,1.621,4.173,2.316
				c2.835,1.376,5.747,2.632,8.751,3.591c3.025,0.966,6.127,1.679,9.251,2.234c1.544,0.274,3.095,0.504,4.649,0.713
				c1.218,0.164,2.426,0.396,3.643,0.567c1.313,0.185,2.662,0.323,3.986,0.192c1.11-0.11,1.919-0.506,2.661-1.338
				c1.607-1.801,2.434-4.182,3.453-6.33C302.535,299.226,304.163,296.381,305.853,293.578z"/>
			<path style="fill:#020B2A;" d="M356.982,349.574c0.796-0.438,1.573-0.91,2.327-1.417c1.461-0.982,2.83-2.09,4.124-3.283
				c1.21-1.116,2.286-2.374,3.548-3.432c0.581-0.486,1.175-0.958,1.735-1.469c0.343-0.313,0.701-0.646,0.964-1.038
				c-0.115-0.083-0.19-0.215-0.206-0.367c-0.006-0.058,0.005-0.01-0.021-0.111c-0.013-0.049-0.024-0.099-0.039-0.148
				c-0.031-0.106-0.068-0.212-0.111-0.315c-0.101-0.242-0.229-0.474-0.36-0.701c-0.331-0.572-0.712-1.113-1.103-1.645
				c-0.757-1.031-1.534-2.04-2.265-3.09c-3.565-5.12-7.836-9.702-12.45-13.887c-2.306-2.092-4.246-4.546-6.142-7.004
				c-0.453-0.587-0.888-1.191-1.37-1.754c-0.464-0.541-0.972-1.042-1.482-1.54c-0.798-0.78-1.659-1.575-2.282-2.517
				c-0.058-0.038-0.112-0.083-0.156-0.142c-1.125-1.515-1.642-3.389-2.513-5.045c-0.885-1.681-1.764-3.365-2.718-5.009
				c-0.943-1.625-1.946-3.237-3.146-4.688c-0.58-0.701-1.199-1.369-1.84-2.014c-0.548-0.552-1.091-1.123-1.73-1.57
				c-0.596-0.418-1.222-0.791-1.807-1.225l-0.031-0.024c-0.078,0.211-0.36,0.354-0.583,0.233c-0.44-0.24-0.764-0.733-1.033-1.143
				c-0.297-0.452-0.547-0.934-0.779-1.422c-0.413-0.865-0.776-1.759-1.26-2.589c-0.516-0.884-1.227-1.643-1.944-2.367
				c-0.777-0.785-1.594-1.529-2.368-2.317c-0.37-0.376-0.723-0.768-1.055-1.178c-0.181-0.224-0.36-0.451-0.519-0.69
				c-0.002-0.003-0.003-0.005-0.005-0.008c-0.373,0.736-0.727,1.48-1.05,2.253c-0.582,1.394-1.155,2.807-1.982,4.078
				c-0.896,1.377-1.936,2.667-2.904,3.993c-0.985,1.35-1.92,2.727-2.794,4.151c-1.759,2.871-3.549,5.726-5.198,8.662
				c-0.822,1.464-1.609,2.948-2.339,4.46c-0.562,1.165-1.055,2.362-1.628,3.522c-0.58,1.172-1.295,2.56-2.292,3.562
				c0.399,0.209,0.844,0.358,1.26,0.471c0.635,0.172,1.288,0.274,1.934,0.391c2.952,0.536,5.819,1.47,8.747,2.117
				c0.672,0.148,1.351,0.274,2.018,0.444c0.458,0.117,0.901,0.293,1.345,0.452c0.855,0.307,1.777,0.63,2.636,0.502
				c0.306-0.046,0.501,0.17,0.493,0.402c0.805,0.414,1.416,1.212,1.872,1.963c0.623,1.025,1.054,2.142,1.553,3.228
				c0.791,1.722,1.73,3.391,2.636,5.054c0.994,1.825,2.028,3.627,3.115,5.398c1.008,1.641,1.734,3.448,2.827,5.037
				c1.127,1.639,2.564,3.063,3.959,4.471c2.772,2.798,5.765,5.324,8.99,7.587c0.821,0.576,1.687,1.082,2.565,1.564
				c0.706,0.388,1.445,0.732,2.11,1.188c0.563,0.385,1.103,0.805,1.664,1.193c0.264,0.182,0.532,0.362,0.813,0.516
				c0.106,0.058,0.233,0.121,0.294,0.143c0.047,0.017,0.095,0.03,0.142,0.044l0.023,0.008l0.016-0.001
				c0.193,0.008,0.316,0.117,0.382,0.253c0.659,0.149,1.31,0.345,1.996,0.306c1.024-0.059,2.032-0.608,2.917-1.085
				C355.329,350.53,356.145,350.034,356.982,349.574z"/>
			<path style="fill:#020B2A;" d="M384.875,381.99c1.85-0.676,3.574-1.678,4.924-3.126c0.889-0.954,1.634-2.043,2.223-3.206
				c0.364-0.719,0.66-1.453,1.058-2.156c0.43-0.758,0.872-1.508,1.272-2.282c0.171-0.332,0.335-0.659,0.447-0.969
				c0.043-0.119,0.078-0.24,0.103-0.364l0.004-0.06c-0.068-0.177-0.018-0.339,0.096-0.451c0.009-0.327,0.007-0.655-0.064-0.966
				c-0.112-0.492-0.451-0.814-0.86-1.089c-0.636-0.427-1.312-0.788-1.953-1.206c-0.685-0.447-1.284-0.978-1.874-1.543
				c-2.044-1.958-3.957-4.051-5.743-6.247c-1.818-2.235-3.475-4.581-5.076-6.974c-1.632-2.438-3.285-4.861-5.214-7.077
				c-0.844-0.969-1.719-1.94-2.336-3.076c-0.31-0.57-0.723-1.673-1.501-1.672c-0.326,0.461-0.767,0.859-1.175,1.223
				c-0.653,0.581-1.345,1.115-2.003,1.69c-0.624,0.544-1.172,1.166-1.756,1.751c-0.655,0.656-1.328,1.294-2.023,1.908
				c-1.387,1.225-2.863,2.354-4.429,3.34c-0.804,0.506-1.641,0.952-2.465,1.425c-0.855,0.491-1.704,1-2.602,1.41
				c-0.53,0.242-1.078,0.462-1.645,0.585c0.243,0.128,0.482,0.272,0.71,0.409c0.719,0.431,1.416,0.897,2.105,1.375
				c1.639,1.14,3.19,2.405,4.691,3.721c1.103,0.967,2.176,1.97,3.197,3.025c1.018,1.052,1.963,2.17,2.931,3.267
				c0.963,1.091,1.962,2.137,3.027,3.128c1.043,0.971,2.113,1.915,3.103,2.942c0.478,0.496,0.929,1.017,1.411,1.509
				c0.468,0.478,0.947,0.945,1.411,1.427c0.867,0.901,1.776,1.894,2.241,3.073c0.433,1.097,0.423,2.299,0.71,3.432
				c0.243,0.957,0.799,1.714,1.695,2.149C381.159,383.113,383.255,382.581,384.875,381.99z"/>
			<path style="fill:#020B2A;" d="M432.503,383.101c-0.494-0.899-1.478-1.465-2.38-1.883c-1.188-0.551-2.482-0.843-3.768-1.051
				c-1.753-0.283-3.531-0.368-5.298-0.515c-1.764-0.147-3.502-0.406-5.217-0.847c-1.69-0.435-3.342-1.007-4.965-1.648
				c-3.203-1.266-6.316-2.8-9.246-4.612c-0.346-0.214-0.686-0.437-1.015-0.677c-0.289-0.211-0.558-0.456-0.858-0.65
				c-0.551-0.357-1.183-0.572-1.706-0.974c-0.262-0.201-0.473-0.44-0.605-0.745c-0.124-0.286-0.165-0.587-0.246-0.886
				c-0.186-0.684-0.86-0.967-1.492-0.726c0.238,0.664,0.189,1.403,0.188,2.134c0,0.167-0.078,0.28-0.183,0.352
				c-0.212,0.703-0.601,1.372-0.952,2.009c-0.403,0.73-0.833,1.444-1.227,2.178c-0.07,0.131-0.137,0.263-0.202,0.397l-0.014,0.032
				l-0.033,0.078c-0.059,0.146-0.121,0.291-0.184,0.434c-0.262,0.592-0.569,1.164-0.911,1.714c-0.702,1.129-1.551,2.189-2.545,3.074
				c-1.463,1.303-3.316,2.215-5.176,2.797c-1.608,0.503-3.535,0.805-5.141,0.133c0.031,0.156,0.053,0.315,0.072,0.473
				c0.057,0.483,0.073,0.97,0.079,1.456c0.013,1.02-0.032,2.039-0.075,3.058c-0.03,0.719-0.13,1.491-0.022,2.207
				c0.179,1.181,0.919,2.243,1.772,3.044c0.452,0.424,0.959,0.784,1.513,1.06c0.316,0.157,0.634,0.253,0.96,0.329
				c0.775,0.005,1.554,0.022,2.327-0.024c1.619-0.096,3.179-0.551,4.714-1.049c1.61-0.522,3.207-1.052,4.874-1.365
				c1.644-0.309,3.312-0.465,4.978-0.603c1.721-0.142,3.441-0.314,5.165-0.414c3.451-0.2,6.912-0.203,10.357-0.509
				c1.706-0.151,3.405-0.38,5.078-0.749c1.441-0.317,2.832-0.79,4.247-1.199c2.274-0.656,4.94-1.289,6.554-3.16
				C432.568,385.026,433.008,384.02,432.503,383.101z"/>
		</g>
		<g>
			<path style="fill:#020B2A;" d="M371.544,281.716c0.02-0.825,0.095-1.668,0.052-2.494c0.796-0.047,1.464-0.772,2.04-1.242
				c0.78-0.637,1.556-1.278,2.334-1.917c1.57-1.292,3.14-2.585,4.705-3.882c0.708-0.586,1.494-1.14,2.11-1.827
				c0.186-0.207,0.334-0.427,0.459-0.656c0.276,0.131,0.546,0.262,0.842,0.362c0.356,0.121,0.715,0.232,1.073,0.346
				c0.735,0.233,1.469,0.473,2.199,0.719c1.352,0.457,2.699,0.932,4.02,1.475c-0.119,2.394-0.141,4.796-0.104,7.192
				c0.019,1.248,0.055,2.496,0.123,3.742c0.034,0.623,0.068,1.247,0.12,1.87c0.027,0.321,0.052,0.644,0.086,0.964
				c0.023,0.214,0.067,0.405,0.119,0.598c-0.322,0.184-0.598,0.523-0.857,0.76c-0.344,0.316-0.69,0.63-1.037,0.943
				c-0.708,0.64-1.422,1.272-2.143,1.897c-1.235,1.071-2.51,2.103-3.721,3.201c-0.386-0.218-0.88-0.336-1.273-0.478
				c-0.532-0.192-1.065-0.384-1.597-0.576c-1.065-0.384-2.13-0.768-3.194-1.153c-1.065-0.384-2.13-0.766-3.196-1.146
				c-0.995-0.354-1.987-0.744-3.001-1.039c-0.102-1.629-0.168-3.261-0.181-4.893C371.515,283.559,371.522,282.637,371.544,281.716z"
				/>
			<path style="fill:#020B2A;" d="M388.299,291.259c0.711-0.607,1.416-1.221,2.115-1.843c0.349-0.311,0.697-0.623,1.042-0.938
				c0.182-0.166,0.403-0.334,0.598-0.52c0.24,0.272,0.671,0.408,0.98,0.546c0.466,0.207,0.935,0.407,1.407,0.599
				c0.946,0.384,1.901,0.742,2.867,1.071c1.931,0.657,3.896,1.214,5.885,1.666c0.571,0.13,1.143,0.251,1.718,0.363
				c0.5,0.098,1.02,0.221,1.533,0.266c-0.01,0.357,0.068,0.719,0.133,1.068c0.075,0.398,0.16,0.794,0.24,1.19
				c0.164,0.813,0.328,1.627,0.493,2.44c0.321,1.59,0.67,3.174,1.008,4.761c-1.326,0.403-2.304,1.579-3.295,2.506
				c-1.264,1.183-2.53,2.363-3.791,3.548c-0.704,0.662-1.405,1.326-2.108,1.988c-0.581,0.548-1.187,1.089-1.713,1.694
				c-0.211-0.125-0.473-0.163-0.709-0.22c-0.226-0.055-0.451-0.11-0.676-0.167c-0.469-0.118-0.936-0.241-1.403-0.369
				c-0.951-0.261-1.897-0.541-2.837-0.841c-0.921-0.294-1.836-0.606-2.746-0.932c-0.473-0.169-0.943-0.348-1.415-0.52
				c-0.202-0.073-0.441-0.19-0.683-0.271c0.005-0.117-0.033-0.236-0.112-0.318c-0.516-2.274-0.964-4.563-1.337-6.864
				c-0.19-1.172-0.362-2.347-0.524-3.522c-0.081-0.588-0.155-1.177-0.229-1.766c-0.065-0.517-0.095-1.057-0.255-1.555
				C385.812,293.374,387.063,292.315,388.299,291.259z"/>
			<path style="fill:#020B2A;" d="M392.359,286.974c0.029-0.197,0.051-0.393,0.045-0.607c-0.008-0.321-0.024-0.643-0.034-0.964
				c-0.02-0.603-0.049-1.206-0.069-1.809c-0.042-1.267-0.077-2.535-0.091-3.803c-0.026-2.443,0.038-4.881,0.136-7.322
				c0.469-0.122,0.933-0.344,1.378-0.515c0.548-0.209,1.096-0.415,1.646-0.617c1.064-0.391,2.135-0.761,3.205-1.137
				c2.13-0.749,4.279-1.441,6.441-2.091c0.209,0.269,0.456,0.513,0.685,0.762c0.346,0.378,0.688,0.759,1.025,1.144
				c0.651,0.743,1.285,1.501,1.903,2.272c1.245,1.555,2.418,3.169,3.526,4.824c0.595,0.888,1.166,1.792,1.718,2.707
				c-1.128,2.057-2.303,4.087-3.525,6.089c-0.632,1.036-1.278,2.065-1.936,3.084c-0.552,0.854-1.151,1.696-1.654,2.585
				c-0.46-0.134-0.954-0.183-1.424-0.272c-0.501-0.095-1.001-0.195-1.5-0.302c-0.978-0.211-1.952-0.446-2.918-0.707
				c-1.933-0.521-3.836-1.145-5.709-1.85c-0.512-0.193-1.021-0.393-1.529-0.596c-0.262-0.105-0.522-0.216-0.786-0.317
				c-0.134-0.051-0.279-0.111-0.426-0.142c0.001-0.003,0.003-0.005,0.004-0.008C392.527,287.227,392.469,287.076,392.359,286.974z"
				/>
			<path style="fill:#020B2A;" d="M408.188,296.924c-0.181-0.788-0.361-1.576-0.542-2.364c-0.09-0.394-0.178-0.789-0.271-1.182
				c-0.082-0.346-0.163-0.699-0.313-1.022c0.77-0.864,1.4-1.867,2.038-2.829c0.682-1.028,1.351-2.065,2.007-3.11
				c1.274-2.033,2.487-4.104,3.653-6.2c0.98,0.396,1.99,0.707,3.008,0.998c1.187,0.339,2.386,0.645,3.595,0.897
				c0.071,0.347,0.158,0.692,0.241,1.036c0.143,0.587,0.287,1.174,0.419,1.764c0.258,1.161,0.482,2.33,0.677,3.503
				c0.393,2.367,0.64,4.757,0.744,7.154c0.014,0.331,0.025,0.662,0.036,0.993c0.004,0.109,0.001,0.228,0.003,0.346
				c-0.244,0.198-0.433,0.459-0.634,0.7c-0.221,0.266-0.44,0.533-0.658,0.802c-0.446,0.551-0.885,1.107-1.319,1.668
				c-0.422,0.546-0.837,1.096-1.246,1.651c-0.205,0.278-0.404,0.56-0.602,0.843c-0.109,0.155-0.232,0.311-0.325,0.478
				c-0.319-0.063-0.647-0.096-0.968-0.142l-1.323-0.189c-0.842-0.121-1.684-0.242-2.527-0.363c-0.882-0.127-1.765-0.253-2.647-0.38
				c-0.656-0.094-1.326-0.208-1.992-0.186c-0.002-0.023,0.004-0.043-0.001-0.066C408.891,300.123,408.554,298.52,408.188,296.924z"
				/>
			<path style="fill:#020B2A;" d="M419.577,304.172c-0.025-0.226-0.038-0.485-0.221-0.643c-0.003-0.003-0.007-0.004-0.01-0.006
				c-0.001-0.019-0.007-0.037-0.01-0.055c0.093-0.11,0.176-0.233,0.268-0.357c0.205-0.279,0.412-0.556,0.618-0.834
				c0.411-0.556,0.824-1.11,1.247-1.658c0.413-0.536,0.833-1.066,1.258-1.591c0.217-0.269,0.437-0.536,0.657-0.802
				c0.139-0.167,0.302-0.337,0.445-0.515c0.276,0.19,0.654,0.181,0.928-0.044c-1.162,3.484-2.947,6.685-5.236,9.46
				c0.03-0.294,0.054-0.589,0.069-0.885c0.023-0.449,0.03-0.9,0.022-1.349C419.608,304.651,419.603,304.411,419.577,304.172z"/>
			<path style="fill:#020B2A;" d="M424.387,296.99c-0.001-0.069-0.002-0.146-0.002-0.136c-0.008-0.273-0.018-0.545-0.031-0.818
				c-0.026-0.545-0.06-1.09-0.102-1.634c-0.081-1.069-0.191-2.137-0.329-3.2c-0.281-2.162-0.671-4.307-1.19-6.425
				c-0.144-0.586-0.293-1.172-0.459-1.753c-0.117-0.407-0.239-0.817-0.395-1.212c0.023-0.077,0.021-0.156,0.002-0.23
				c0.221-0.378,0.356-0.824,0.498-1.225c0.201-0.567,0.395-1.137,0.577-1.711c0.176-0.555,0.345-1.113,0.505-1.673
				c0.072-0.25,0.141-0.5,0.21-0.751c1.667,3.7,2.603,7.797,2.603,12.111c0,3.095-0.48,6.08-1.366,8.887
				C424.835,297.025,424.616,296.884,424.387,296.99z"/>
			<path style="fill:#020B2A;" d="M423.195,275.211c-0.134,0.217-0.181,0.46-0.25,0.713c-0.072,0.262-0.145,0.524-0.22,0.785
				c-0.161,0.56-0.329,1.118-0.505,1.673c-0.176,0.555-0.356,1.109-0.544,1.66c-0.132,0.387-0.321,0.796-0.412,1.209
				c-1.085-0.229-2.165-0.473-3.236-0.758c-1.061-0.283-2.108-0.616-3.168-0.9c-0.042-0.074-0.098-0.142-0.17-0.189
				c-2.07-3.42-4.444-6.643-7.098-9.633c-0.376-0.424-0.758-0.843-1.144-1.257c-0.304-0.325-0.605-0.682-0.957-0.964
				c-0.005-0.044-0.017-0.087-0.033-0.128c0.247-0.56,0.389-1.164,0.566-1.749c0.101-0.333,0.207-0.665,0.317-0.995
				c0.055-0.165,0.112-0.33,0.17-0.494c0.021-0.059,0.041-0.114,0.058-0.166c0.106,0.003,0.214,0.004,0.329-0.014
				c0.539-0.083,1.07-0.266,1.596-0.408c1.021-0.274,2.043-0.548,3.064-0.822C416.549,265.687,420.613,270.016,423.195,275.211z"/>
			<path style="fill:#020B2A;" d="M406.282,263.07c-0.205-0.099-0.373-0.285-0.536-0.44c-0.789-0.745-1.576-1.491-2.364-2.237
				c-0.398-0.376-0.797-0.751-1.197-1.125c2.899,0.547,5.648,1.517,8.183,2.845c-0.63,0.177-1.26,0.355-1.89,0.532
				c-0.493,0.139-0.985,0.287-1.481,0.417C406.755,263.126,406.518,263.184,406.282,263.07z"/>
			<path style="fill:#020B2A;" d="M400.837,259.045c0.242,0.31,0.556,0.576,0.832,0.847c0.43,0.422,0.862,0.842,1.294,1.262
				c0.817,0.792,1.605,1.64,2.466,2.384c0.129,0.112,0.263,0.199,0.4,0.275c-0.014,0.043-0.027,0.087-0.042,0.132
				c-0.059,0.177-0.117,0.354-0.174,0.531c-0.105,0.332-0.206,0.665-0.302,1c-0.154,0.539-0.319,1.094-0.373,1.656
				c-0.011,0.003-0.021,0.003-0.033,0.006c-2.232,0.658-4.446,1.381-6.639,2.159c-1.088,0.386-2.165,0.806-3.239,1.231
				c-0.546,0.216-1.091,0.436-1.635,0.659c-0.456,0.187-0.965,0.354-1.394,0.612c-0.098-0.019-0.203-0.01-0.298,0.025
				c-1.364-0.461-2.719-0.95-4.085-1.406c-0.713-0.238-1.428-0.469-2.145-0.693c-0.359-0.112-0.718-0.221-1.08-0.323
				c-0.312-0.088-0.615-0.132-0.925-0.175c0.155-0.4,0.252-0.826,0.326-1.272c0.374-2.25,0.753-4.499,1.118-6.75
				c3.612-1.575,7.595-2.454,11.781-2.454C398.098,258.749,399.481,258.854,400.837,259.045z"/>
			<path style="fill:#020B2A;" d="M383.892,261.664c-0.269,1.661-0.531,3.323-0.795,4.986c-0.134,0.84-0.181,1.83-0.603,2.588
				c-0.408,0.732-1.171,1.246-1.802,1.77c-1.455,1.208-2.909,2.418-4.36,3.632c-0.741,0.619-1.482,1.239-2.223,1.859
				c-0.37,0.31-0.74,0.62-1.109,0.931c-0.335,0.282-0.662,0.607-1.034,0.84c-0.657,0.411-1.095-0.001-1.54-0.486
				c-0.307-0.334-0.615-0.693-1.006-0.913C372.229,270.211,377.407,264.789,383.892,261.664z"/>
			<path style="fill:#020B2A;" d="M369.18,277.475c0.593,0.509,1.002,1.294,1.7,1.614c-0.142,0.822-0.146,1.677-0.173,2.507
				c-0.03,0.941-0.045,1.883-0.045,2.825c0.001,1.864,0.065,3.726,0.189,5.586c0.001,0.02,0.011,0.035,0.015,0.054
				c-0.068,0.194-0.123,0.396-0.184,0.582c-0.122,0.374-0.245,0.749-0.36,1.125c-0.231,0.752-0.444,1.511-0.65,2.27
				c-0.202,0.74-0.394,1.483-0.577,2.229c-0.094,0.382-0.185,0.765-0.274,1.148c-0.034,0.146-0.083,0.304-0.125,0.466
				c-1.025-2.997-1.59-6.206-1.59-9.547C367.107,284.5,367.848,280.839,369.18,277.475z"/>
			<path style="fill:#020B2A;" d="M369.067,298.904c0.09-0.003,0.178-0.036,0.246-0.114c0.254-0.292,0.276-0.712,0.36-1.081
				c0.087-0.384,0.176-0.767,0.268-1.15c0.183-0.765,0.377-1.528,0.58-2.289c0.198-0.741,0.409-1.479,0.623-2.216
				c0.109-0.378,0.217-0.756,0.328-1.134c0.064-0.216,0.143-0.44,0.203-0.666c0.877,0.366,1.781,0.674,2.671,1.002
				c1.063,0.392,2.126,0.781,3.19,1.168c1.064,0.387,2.128,0.774,3.192,1.161c0.532,0.193,1.064,0.387,1.596,0.58l0.741,0.269
				c0.086,0.031,0.172,0.065,0.259,0.098c0.031,0.205,0.246,0.381,0.459,0.27c0.004,0.397,0.062,0.8,0.099,1.188
				c0.056,0.591,0.123,1.18,0.192,1.769c0.142,1.201,0.31,2.399,0.5,3.593c0.363,2.285,0.802,4.556,1.307,6.814
				c-0.568,0.229-1.129,0.481-1.7,0.7c-0.787,0.302-1.58,0.591-2.382,0.852c-0.785,0.255-1.577,0.484-2.377,0.689
				c-0.4,0.102-0.801,0.199-1.203,0.29c-0.206,0.047-0.471,0.068-0.701,0.139C373.788,307.653,370.856,303.561,369.067,298.904z"/>
			<path style="fill:#020B2A;" d="M378.486,311.625c0.382-0.085,0.762-0.174,1.141-0.272c0.817-0.211,1.627-0.449,2.428-0.714
				c0.802-0.264,1.596-0.552,2.375-0.877c0.613-0.256,1.234-0.519,1.826-0.827c0.278,0.239,0.719,0.359,1.027,0.488
				c0.464,0.194,0.935,0.373,1.406,0.55c0.942,0.353,1.893,0.681,2.851,0.989c0.958,0.307,1.922,0.594,2.891,0.861
				c0.485,0.133,0.971,0.262,1.459,0.384c0.391,0.099,0.824,0.252,1.238,0.259c0.092,0.07,0.218,0.099,0.323,0.031
				c0.019-0.012,0.037-0.027,0.056-0.04c0.086,0.176,0.199,0.343,0.301,0.506c0.16,0.256,0.317,0.513,0.475,0.769
				c0.307,0.497,0.618,0.991,0.92,1.491c0.303,0.499,0.604,1,0.902,1.503c0.153,0.26,0.306,0.52,0.457,0.781
				c0.026,0.046,0.051,0.092,0.076,0.138c-1.292,0.173-2.608,0.271-3.947,0.271C389.829,317.916,383.51,315.561,378.486,311.625z"/>
			<path style="fill:#020B2A;" d="M401.603,317.501c-0.07-0.155-0.167-0.301-0.255-0.452c-0.152-0.26-0.305-0.52-0.46-0.779
				c-0.309-0.518-0.622-1.033-0.943-1.544c-0.321-0.511-0.643-1.021-0.978-1.523c-0.256-0.383-0.511-0.853-0.846-1.196
				c0.434-0.349,0.844-0.732,1.252-1.106c0.624-0.571,1.248-1.142,1.871-1.713c1.247-1.142,2.488-2.291,3.731-3.437
				c0.607-0.56,1.213-1.119,1.82-1.679c0.506-0.467,1.017-1.015,1.693-1.225c0.727-0.226,1.516-0.1,2.253,0.006
				c0.842,0.12,1.685,0.241,2.527,0.361c0.923,0.132,1.845,0.263,2.768,0.395l1.444,0.207c0.437,0.063,0.881,0.149,1.323,0.164
				c-0.005,0.063-0.008,0.126-0.01,0.191c-0.008,0.24-0.002,0.48-0.006,0.72c-0.007,0.45-0.029,0.9-0.066,1.349
				c-0.037,0.439-0.09,0.876-0.149,1.312c-0.022,0.165-0.08,0.47-0.053,0.724C414.156,313.049,408.251,316.385,401.603,317.501z"/>
		</g>
	</g>
</g>
</svg>
