<?xml version="1.0" encoding="utf-8"?>
<!-- Generator: Adobe Illustrator 27.5.0, SVG Export Plug-In . SVG Version: 6.00 Build 0)  -->
<svg version="1.1" xmlns="http://www.w3.org/2000/svg" xmlns:xlink="http://www.w3.org/1999/xlink" x="0px" y="0px"
	 viewBox="0 0 500 500" style="enable-background:new 0 0 500 500;" xml:space="preserve">
<g id="BACKGROUND">
	<rect style="fill:none;" width="500" height="500"/>
</g>
<g id="OBJECTS">
	<ellipse style="fill:#3887fa;" cx="256.885" cy="466.238" rx="188.758" ry="5.248"/>
	<path style="fill:#3887fa;" d="M425.823,171.149v133.622c0,52.465-38.986,95.393-86.637,95.393H170.441
		c-47.651,0-86.633-42.927-86.633-95.393V171.149c0-15.938,3.596-30.995,9.944-44.237c5.817-12.144,13.946-22.762,23.73-31.125
		c14.668-12.546,33.057-20.035,52.958-20.035h168.745c17.205,0,33.277,5.597,46.791,15.208c5.32,3.786,10.242,8.194,14.681,13.129
		C416.194,121.355,425.823,145.072,425.823,171.149z"/>
	<path style="fill:#7ab0ff;" d="M169.698,161.33c0,37.123-30.096,67.22-67.22,67.22c-6.478,0-12.745-0.916-18.67-2.628v-54.773
		c0-15.938,3.596-30.995,9.944-44.237c5.817-12.144,13.946-22.762,23.73-31.125C147.385,102.603,169.698,129.363,169.698,161.33z"/>
	<path style="fill:#7ab0ff;" d="M425.823,171.149v62.293c-1.046,0.043-2.096,0.065-3.15,0.065
		c-41.968,0-75.993-34.025-75.993-75.993c0-28.657,15.869-53.61,39.297-66.554c5.32,3.786,10.242,8.194,14.681,13.129
		C416.194,121.355,425.823,145.072,425.823,171.149z"/>
	
		<ellipse transform="matrix(0.2335 -0.9724 0.9724 0.2335 -190.7333 394.6431)" style="fill:#7ab0ff;" cx="154.947" cy="318.3" rx="37.477" ry="37.477"/>
	
		<ellipse transform="matrix(0.2451 -0.9695 0.9695 0.2451 -93.5021 390.4229)" style="fill:#7ab0ff;" cx="203.957" cy="255.253" rx="20.416" ry="20.416"/>
	<circle style="fill:#7ab0ff;" cx="83.809" cy="312.449" r="20.416"/>
	<circle style="fill:#7ab0ff;" cx="422.124" cy="296.193" r="27.01"/>
	
		<ellipse transform="matrix(0.7736 -0.6337 0.6337 0.7736 -91.9955 304.1879)" style="fill:#7ab0ff;" cx="379.65" cy="280.823" rx="10.477" ry="10.477"/>
	
		<ellipse transform="matrix(0.2305 -0.9731 0.9731 0.2305 13.3633 273.0215)" style="fill:#7ab0ff;" cx="179.303" cy="128.062" rx="7.34" ry="7.34"/>
	<circle style="fill:#7ab0ff;" cx="382.979" cy="308.841" r="5.238"/>
	<circle style="fill:#7ab0ff;" cx="201.455" cy="291.299" r="5.238"/>
	<g>
		<g>
			<path style="fill:#020B2A;" d="M126.843,55.856c1.078,1.15,2.195,2.265,3.32,3.368c1.13,1.109,2.278,2.199,3.444,3.27
				c0.375,0.344,0.752,0.686,1.129,1.028c0.157-0.113,0.374-0.127,0.513,0.066c0.226,0.313,0.43,0.641,0.629,0.973
				c0.127,0.115,0.256,0.229,0.381,0.346c0.277,0.261,0.513,0.577,0.752,0.873c0.137,0.17-0.006,0.383-0.186,0.372
				c0.204,0.341,0.408,0.682,0.611,1.023c0.7,1.171,1.401,2.342,2.097,3.515c0.631,1.062,1.26,2.125,1.888,3.188
				c0.577,0.978,1.214,1.94,1.715,2.96c0.391,0.796,0.693,1.716,0.466,2.604c-0.243,0.95-1.078,1.466-1.941,1.786
				c-0.815,0.302-1.769,0.523-2.155,1.401c-0.137,0.312-0.137,0.655,0.171,0.86c0.312,0.208,0.755,0.163,1.107,0.115
				c1.19-0.162,2.372-0.394,3.559-0.581c0.741-0.117,1.485-0.246,2.23-0.354c0.029-0.182,0.166-0.342,0.417-0.332
				c0.732,0.031,1.473,0.156,2.201,0.24c0.306,0.035,0.612,0.069,0.917,0.107c-0.029-0.163,0.152-0.345,0.327-0.282
				c0.458,0.163,0.876,0.425,1.298,0.664c0.403,0.228,0.806,0.456,1.206,0.688c0.831,0.483,1.649,0.986,2.464,1.495
				c2.896,1.809,5.749,3.683,8.561,5.621c0.703,0.484,1.403,0.972,2.101,1.464c0.599,0.422,1.213,0.986,1.913,1.227
				c0.645,0.222,1.296-0.016,1.817-0.417c0.294-0.226,0.561-0.487,0.807-0.764c0.17-0.192,0.321-0.396,0.49-0.584
				c-0.072-0.051-0.145-0.103-0.217-0.154c-0.013,0.123-0.036,0.244-0.074,0.359c-0.049,0.147-0.262,0.202-0.364,0.074
				c-0.31-0.389-0.329-0.928-0.363-1.407c-0.035-0.5,0.006-1.003,0.091-1.496c0.297-1.721,1.154-3.321,2.01-4.825
				c0.4-0.703,0.848-1.376,1.383-1.984c0.493-0.561,1.144-1.192,1.859-1.451c0.12-0.044,0.227-0.039,0.319-0.009
				c-0.141-0.306-0.363-0.582-0.619-0.789c-0.629-0.508-1.437-0.725-2.2-0.939c-6.346-1.775-12.477-4.199-18.271-7.343
				c-0.112-0.061-0.133-0.177-0.103-0.283c-0.334-0.269-0.662-0.546-1.003-0.802c-0.676-0.508-1.347-1.016-2.066-1.462
				c-1.419-0.879-2.917-1.571-4.215-2.639c-1.175-0.967-2.249-2.058-3.313-3.143c-1.108-1.129-2.196-2.278-3.295-3.415
				c-1.084-1.122-2.179-2.234-3.314-3.305c-1.024-0.967-2.089-1.898-3.28-2.656c-0.526-0.335-1.075-0.673-1.682-0.835
				c-0.393-0.105-0.974-0.186-1.309,0.11c-0.452,0.399-0.053,1.049,0.236,1.412c0.477,0.599,1.052,1.133,1.581,1.687
				c1.134,1.188,2.268,2.376,3.401,3.563c0.561,0.587,1.121,1.174,1.682,1.762c0.571,0.598,1.172,1.165,1.63,1.855
				c0.198,0.297-0.238,0.65-0.508,0.453c-0.781-0.572-1.415-1.344-2.082-2.043c-0.65-0.681-1.299-1.361-1.949-2.042
				c-1.085-1.137-2.171-2.273-3.255-3.41c-0.075,0.051-0.171,0.063-0.253-0.004c-0.723-0.595-1.46-1.168-2.174-1.776
				c-0.569-0.484-1.144-1.037-1.925-1.103c-0.353-0.03-0.704,0.013-1.053,0.069c-0.208,0.034-0.643,0.005-0.639,0.288
				c0.004,0.321,0.23,0.678,0.405,0.933C126.361,55.337,126.603,55.599,126.843,55.856z"/>
			<path style="fill:#020B2A;" d="M175.887,81.648c0.001-0.019,0-0.037,0-0.056c-0.011,0.012-0.023,0.023-0.036,0.035
				C175.863,81.634,175.875,81.64,175.887,81.648z"/>
			<path style="fill:#020B2A;" d="M204.647,121.435c-0.665-0.757-1.444-1.317-2.376-1.702c-0.929-0.383-1.904-0.659-2.866-0.945
				c-0.999-0.297-2.005-0.573-3.021-0.811c-2.001-0.468-4.055-0.776-6.114-0.746c-2.094,0.031-4.124,0.482-6.04,1.323
				c-1.722,0.756-3.425,1.675-4.933,2.803c-1.369,1.024-2.633,2.282-3.369,3.847c-0.873,1.859-0.906,3.983-0.841,5.998
				c0.072,2.196,0.335,4.431,0.825,6.574c0.376,1.642,1.142,3.429,2.737,4.175c-0.104-0.273-0.202-0.549-0.287-0.83
				c-0.575-1.897-0.687-3.861-0.797-5.826c-0.006-0.114,0.06-0.191,0.148-0.231c0.089-0.755,0.27-1.501,0.512-2.215
				c0.443-1.312,1.121-2.557,1.948-3.666c1.583-2.123,3.722-3.779,6.003-5.094c2.47-1.423,5.258-2.561,8.163-2.294
				c1.359,0.125,2.68,0.51,3.967,0.95c1.269,0.434,2.584,0.85,3.749,1.527c1.145,0.665,1.984,1.665,2.747,2.727
				c0.864,1.204,1.715,2.42,2.571,3.63c0.153-0.893,0.585-1.776,1.615-1.824c0.413-0.019,0.792,0.105,1.135,0.311
				c-1.074-1.827-2.319-3.551-3.589-5.246C205.916,123.053,205.323,122.204,204.647,121.435z"/>
			<path style="fill:#020B2A;" d="M217.889,138.229c-1.019-2.643-2.849-4.863-4.65-7.008c-1.286-1.532-2.555-3.078-3.802-4.641
				c0.153,0.236,0.31,0.468,0.457,0.707c0.596,0.967,1.197,1.953,1.596,3.018c0.034,0.092,0.027,0.173-0.005,0.24
				c0.021,0.033,0.045,0.066,0.065,0.098c0.601,0.966,0.96,2.113,1.2,3.218c0.126,0.579,0.131,1.169-0.108,1.721
				c-0.023,0.054-0.053,0.103-0.079,0.155c-0.044,0.338-0.084,0.676-0.084,1.021c0,0.521,0.067,1.041,0.18,1.549
				c0.435,1.952,1.539,3.72,2.722,5.304c0.63,0.844,1.309,1.652,2.031,2.418c0.017,0.018,0.035,0.034,0.051,0.051
				c0.04-0.007,0.082-0.012,0.122-0.019c0.01-0.028,0.013-0.055,0.029-0.083C219.011,143.652,218.837,140.689,217.889,138.229z"/>
			<path style="fill:#020B2A;" d="M185.794,153.587c-0.299,0.346-0.309,0.725-0.1,1.101c0.234,0.419,0.655,0.652,1.109,0.765
				c0.259,0.065,0.533,0.081,0.799,0.086c0.082,0.002,0.164,0,0.246-0.003c0.019-0.021,0.04-0.039,0.064-0.051
				c0.143-0.071,0.269-0.082,0.427-0.06c0.151,0.021,0.299,0.051,0.447,0.087c0.224,0.053,0.445,0.114,0.667,0.175
				c-0.055-0.06-0.113-0.117-0.167-0.177c-0.822-0.921-1.622-1.863-2.419-2.807C186.544,153.025,186.093,153.24,185.794,153.587z"/>
			<path style="fill:#020B2A;" d="M192.463,156.666c0.695,0.178,1.61,0.202,2.269-0.124c0.347-0.172,0.435-0.546,0.53-0.893
				c0.104-0.38,0.218-0.756,0.355-1.126c0.276-0.743,0.624-1.465,1.019-2.152c1.699-2.952,4.317-5.178,7.157-6.988
				c1.522-0.97,3.12-1.796,4.69-2.682c0.686-0.387,1.392-0.843,1.805-1.535c0.178-0.298,0.301-0.671,0.318-1.04
				c-0.111-0.087-0.177-0.224-0.184-0.376c-0.026-0.58-0.323-1.111-0.341-1.697c-0.017-0.569,0.259-1.036,0.635-1.439
				c0.603-0.646,1.354-1.237,1.235-2.225c-0.061-0.508-0.222-1.017-0.373-1.504c-0.145-0.467-0.32-0.925-0.542-1.361
				c-0.227-0.447-0.502-0.861-0.849-1.223c-0.285-0.298-0.668-0.611-1.098-0.637c-0.81-0.049-0.956,1.064-1.035,1.65
				c-0.059,0.431-0.64,0.436-0.733,0.07c-0.173,0.097-0.428,0.092-0.548-0.078c-0.932-1.316-1.847-2.646-2.799-3.948
				c-0.411-0.561-0.846-1.109-1.356-1.584c-0.497-0.462-1.09-0.82-1.704-1.102c-1.171-0.539-2.424-0.951-3.652-1.339
				c-1.258-0.397-2.552-0.699-3.878-0.695c-2.692,0.008-5.262,1.27-7.506,2.653c-2.1,1.295-4.03,2.936-5.424,4.988
				c-0.667,0.982-1.194,2.045-1.566,3.173c-0.35,1.064-0.497,2.164-0.577,3.277c0.203,1.819,0.476,3.67,1.231,5.352
				c0.764,1.702,2.027,3.096,3.231,4.496c1.286,1.496,2.571,2.993,3.853,4.492c0.647,0.757,1.294,1.513,1.941,2.27
				c0.598,0.699,1.175,1.428,1.826,2.079C190.978,156.003,191.653,156.458,192.463,156.666z"/>
			<path style="fill:#020B2A;" d="M203.083,165.471c-0.102-0.101-0.183-0.232-0.27-0.346c-0.14-0.185-0.28-0.371-0.421-0.556
				c-0.031,0.038-0.064,0.076-0.112,0.105c-0.057,0.036-0.115,0.072-0.172,0.108c-0.242,0.535-0.442,1.083-0.57,1.66
				c2.417,0.42,4.897-0.262,7.005-1.457c2.088-1.183,3.849-2.858,5.506-4.572c1.552-1.604,3.1-3.233,4.46-5.006
				c1.331-1.735,2.492-3.642,3.116-5.752c0.149-0.503,0.272-1.076,0.068-1.582c-0.171-0.428-0.528-0.746-0.926-0.961
				c-0.773-0.417-1.673-0.381-2.535-0.26c0.1,0.097,0.194,0.2,0.295,0.296c0.191,0.181,0.385,0.359,0.582,0.535
				c0.212,0.189,0.387,0.326,0.46,0.612c0.055,0.215-0.146,0.437-0.363,0.415c-0.353-0.035-0.57-0.285-0.821-0.512
				c-0.232-0.21-0.46-0.423-0.685-0.641c-0.438-0.424-0.861-0.861-1.27-1.313c-1.446-1.597-2.82-3.389-3.737-5.349
				c-0.438-0.936-0.785-1.936-0.925-2.963c-0.046-0.339-0.073-0.694-0.072-1.05c-0.35,0.339-0.772,0.681-0.737,1.217
				c0.014,0.21,0.061,0.414,0.114,0.616c0.21,0.316,0.356,0.654,0.397,1.036c0.199,1.854-1.342,3.048-2.794,3.84
				c-1.679,0.915-3.366,1.811-4.967,2.86c-2.869,1.88-5.641,4.342-7.013,7.56c-0.16,0.376-0.303,0.761-0.425,1.151
				c-0.12,0.385-0.193,0.786-0.327,1.166c-0.09,0.254-0.226,0.483-0.404,0.673c0.301,0.057,0.6,0.125,0.897,0.188
				c0.49,0.104,0.968,0.227,1.413,0.463c0.879,0.467,1.455,1.389,2.04,2.16c0.685,0.904,1.371,1.807,2.056,2.711
				c0.332,0.437,0.664,0.873,0.994,1.312l0.528,0.701c0.089,0.118,0.182,0.233,0.262,0.357c0.025,0.038,0.221,0.437,0.065,0.23
				c0.268,0.357-0.25,0.823-0.519,0.464C203.423,165.781,203.119,165.508,203.083,165.471z"/>
			<path style="fill:#020B2A;" d="M126.948,134.875c0.115,0.294-0.228,0.547-0.46,0.314c-0.893-0.896-0.788-2.454-0.519-3.585
				c0.247-1.039,0.723-2.01,1.222-2.949c0.516-0.97,1.031-2.03,1.932-2.704c0.469-0.351,0.994-0.631,1.527-0.873
				c0.562-0.256,1.153-0.446,1.775-0.463c0.239-0.006,0.501,0.028,0.761,0.1c0.075-0.025,0.161-0.014,0.234,0.064
				c0.005,0.006,0.011,0.012,0.016,0.018c0.61,0.231,1.143,0.679,1.203,1.321c0.487,0.535,0.978,1.067,1.461,1.607
				c0.338-0.372,0.579-0.761,0.644-1.299c0.083-0.684-0.091-1.334-0.41-1.938c-0.331-0.627-0.789-1.174-1.255-1.704
				c-0.523-0.595-1.052-1.186-1.577-1.779c-1.074-1.213-2.147-2.426-3.217-3.643c-1.703-1.938-3.417-3.866-5.074-5.843
				c-0.14-0.092-0.277-0.19-0.406-0.299c-0.872-0.736-1.36-1.672-1.666-2.758c-0.158-0.559-0.289-1.138-0.595-1.639
				c-0.28-0.458-0.727-0.772-1.188-1.028c-0.968-0.537-2.04-0.913-3.086-1.267c-1.037-0.351-2.086-0.662-3.128-0.995
				c-2.131-0.681-4.244-1.482-6.058-2.822c-1.017-0.751-1.951-1.616-2.871-2.481c-0.899-0.845-1.775-1.715-2.627-2.607
				c-1.735-1.815-3.318-3.74-4.89-5.695c-0.299-0.372-0.675-0.816-1.196-0.819c-0.443-0.003-0.601,0.339-0.563,0.739
				c0.049,0.514,0.268,1.025,0.45,1.502c0.216,0.566,0.457,1.121,0.721,1.666c2.141,4.434,5.63,8,9.082,11.432
				c1.805,1.795,3.639,3.577,5.3,5.508c0.765,0.889,1.479,1.881,1.689,3.06c0.114,0.636,0.038,1.605,0.357,2.273
				c0.149-0.094,0.369-0.089,0.488,0.107c0.965,1.594,1.889,3.21,2.783,4.844c1.578,2.885,3.088,5.807,4.548,8.753
				c0.73,1.473,1.446,2.953,2.151,4.439c0.298,0.628,0.6,1.315,1.141,1.776c0.433,0.369,1.065,0.571,1.592,0.293
				c0.104-0.054,0.2-0.056,0.287-0.036c-0.3-0.656-0.596-1.315-0.901-1.969C126.663,133.963,126.77,134.419,126.948,134.875z"/>
			<path style="fill:#020B2A;" d="M219.647,213.689c1.548,1.291,3.276,2.304,5.038,3.27c2.619,1.435,5.42,2.954,7.356,5.258
				c0.083,0.023,0.161,0.074,0.216,0.166c0.093,0.154,0.183,0.31,0.275,0.464c0.36,0.497,0.685,1.024,0.957,1.596
				c0.015,0.032,0.015,0.061,0.023,0.091c0.081,0.144,0.165,0.286,0.244,0.43c3.927,7.123,7.122,14.629,10.334,22.093
				c1.611,3.743,3.177,7.544,4.061,11.535c0.215,0.97,0.388,1.949,0.509,2.935c0.097,0.79,0.075,1.639,0.331,2.401
				c0.208,0.622,0.6,1.035,1.237,0.6c0.424-0.29,0.808-0.661,1.203-0.989c0.376-0.313,0.753-0.626,1.129-0.938
				c6.393-5.313,12.831-10.576,19.18-15.942c1.423-1.203,2.825-2.461,3.954-3.952c1.089-1.438,1.881-3.064,2.65-4.688
				c0.76-1.605,1.517-3.219,2.52-4.691c0.94-1.379,2.056-2.639,3.273-3.78c2.475-2.32,5.362-4.16,8.285-5.857
				c1.393-0.809,2.865-1.524,4.198-2.43c0.863-0.587,1.725-1.342,2.091-2.321c0.002-0.029,0.002-0.058,0.013-0.089
				c0.04-0.105,0.075-0.211,0.111-0.318c0.034-0.159,0.057-0.324,0.062-0.494c0.005-0.15,0.072-0.254,0.165-0.318
				c0.046-0.203,0.087-0.406,0.116-0.611c0.166-1.158,0.065-2.377-0.353-3.474c-0.435-1.14-1.149-2.138-1.932-3.063
				c-0.81-0.959-1.69-1.856-2.496-2.818c-0.829-0.989-1.598-2.027-2.327-3.092c-2.917-4.262-5.132-8.943-7.789-13.361
				c-1.428-2.375-2.962-4.685-4.489-6.997c-1.397-2.116-2.8-4.228-4.265-6.298c-2.908-4.107-6.072-8.072-9.832-11.437
				c-1.894-1.695-4.048-3.082-5.455-5.248c-0.724-1.114-1.315-2.316-1.94-3.486c-0.464-0.868-0.927-1.737-1.391-2.605
				c-0.309-0.358-0.591-0.742-0.878-1.118c-0.419-0.55-0.832-1.106-1.237-1.667c-0.813-1.124-1.598-2.269-2.355-3.431
				c-1.35-2.073-2.607-4.207-3.765-6.393c-1.137-2.146-2.173-4.371-3.609-6.34c-1.303-1.787-2.953-3.258-4.572-4.75
				c-0.81-0.747-1.618-1.496-2.364-2.307c-0.544-0.59-1.028-1.208-1.473-1.862c-0.532-0.531-1.029-1.098-1.538-1.652
				c-0.57-0.62-1.139-1.241-1.709-1.861c-1.116-1.215-2.231-2.43-3.349-3.643c-3.957-4.293-7.951-8.556-12.141-12.625
				c-2.887-2.803-5.875-5.496-8.927-8.116c0.072,0.114,0.15,0.225,0.216,0.342c0.228,0.404-0.382,0.817-0.669,0.458
				c-0.415-0.518-0.793-1.063-1.216-1.575c-0.412-0.499-0.847-0.978-1.301-1.438c-0.906-0.918-1.89-1.755-2.927-2.522
				c-3.932-2.908-8.494-4.763-13.06-6.42c-2.503-0.909-5.023-1.773-7.501-2.751c-1.245-0.492-2.479-1.012-3.687-1.589
				c-0.912-0.436-1.815-0.888-2.66-1.436c-0.138-0.027-0.264-0.108-0.33-0.233c-0.161-0.112-0.326-0.219-0.482-0.34
				c-0.002-0.001-0.002-0.003-0.004-0.005c-0.235,0.154-0.464,0.31-0.679,0.505c-0.34,0.309-0.641,0.654-0.915,1.022
				c-0.568,0.764-1.024,1.604-1.459,2.448c-0.491,0.951-0.968,1.925-1.227,2.968c-0.128,0.516-0.178,1.041-0.206,1.57
				c-0.008,0.158-0.004,0.324,0.001,0.491c0.306,0.186,0.608,0.378,0.911,0.568c0.006,0.003,0.011,0.007,0.017,0.01
				c1.821,1.142,3.593,2.355,5.338,3.614c3.646,2.63,7.173,5.427,10.567,8.375c1.674,1.455,3.308,2.953,4.928,4.469
				c1.393,1.304,2.852,2.548,4.737,3.041c0.185,0.049,0.288,0.251,0.274,0.435c0.384,0.128,0.775,0.241,1.139,0.4
				c0.702,0.308,1.295,0.772,1.798,1.348c0.501,0.573,0.918,1.217,1.354,1.839c0.51,0.728,1.025,1.453,1.541,2.177
				c1.808,2.534,3.674,5.028,5.593,7.479c1.888,2.411,3.873,4.739,5.806,7.112c1.786,2.192,3.477,4.566,4.221,7.333
				c0.6,2.232,0.559,4.682-0.477,6.766c0.944-0.076,1.886-0.004,2.727,0.504c0.514,0.31,0.955,0.78,1.164,1.348
				c0.249,0.676,0.156,1.386-0.036,2.064c-0.641,2.271-1.918,4.343-3.355,6.193c-1.5,1.931-3.199,3.72-4.913,5.46
				c-1.796,1.824-3.757,3.571-6.081,4.692c-2.237,1.079-4.802,1.59-7.245,0.988c-0.167-0.041-0.32-0.263-0.289-0.434
				c0.078-0.415,0.194-0.83,0.336-1.236c-1.296,0.811-2.595,1.619-3.912,2.393c-0.852,0.501-1.741,0.876-2.738,0.934
				c-0.952,0.056-1.901-0.155-2.811-0.413c-1.685-0.478-3.308-1.161-4.937-1.799c-1.598-0.626-3.196-1.253-4.79-1.89
				c-3.155-1.261-6.296-2.559-9.396-3.949c-3.128-1.403-6.223-2.891-9.226-4.547c-1.429-0.787-2.874-1.578-4.223-2.498
				c-0.626-0.427-1.225-0.9-1.761-1.438c-0.196-0.197-0.37-0.403-0.533-0.615c-0.142,0.044-0.302,0.024-0.432-0.119
				c-1.731-1.903-3.457-3.812-5.176-5.727c-3.061-3.408-6.096-6.838-9.1-10.295c-2.595-2.987-5.195-5.97-7.688-9.042
				c-0.1-0.006-0.195-0.041-0.26-0.116c-0.148-0.172-0.248-0.381-0.422-0.531c-0.14-0.12-0.309-0.206-0.482-0.266
				c-0.485-0.168-1.004-0.095-1.483,0.062c-0.479,0.157-0.941,0.397-1.377,0.645c-0.4,0.227-0.771,0.499-1.066,0.855
				c-0.594,0.716-1.017,1.611-1.444,2.433c-0.413,0.795-0.775,1.629-0.961,2.509c-0.058,0.273-0.09,0.542-0.103,0.808
				c0.064-0.007,0.131,0.019,0.172,0.093c0.72,1.328,1.485,2.628,2.188,3.966c0.685,1.303,1.36,2.611,2.035,3.92
				c2.411,4.678,4.81,9.362,7.197,14.053c1.096,2.153,2.166,4.377,3.799,6.185c0.687,0.76,1.469,1.429,2.35,1.955
				c0.431,0.258,0.883,0.474,1.355,0.645c0.167,0.061,0.337,0.11,0.507,0.158c0.082-0.027,0.177-0.023,0.278,0.035
				c0.045,0.026,0.089,0.055,0.134,0.082c0.18,0.051,0.359,0.105,0.535,0.173c0.122,0.047,0.195,0.163,0.218,0.287
				c1.206,0.756,2.373,1.578,3.55,2.377c1.435,0.973,2.863,1.955,4.293,2.935c2.555,1.751,5.111,3.503,7.666,5.254
				c2.512,1.722,5.007,3.475,7.545,5.159c1.199,0.796,2.427,1.554,3.719,2.19c1.328,0.653,2.702,1.205,4.037,1.842
				c1.322,0.631,2.616,1.321,3.891,2.043c0.652,0.369,1.299,0.746,1.944,1.127c0.576,0.34,1.153,0.67,1.682,1.077
				c0.027,0.017,0.054,0.033,0.08,0.05c3.86,2.487,7.669,5.051,11.498,7.583c1.8,1.19,3.626,2.328,5.582,3.247
				c1.831,0.859,3.661,1.68,5.299,2.883c2.931,2.153,5.23,5.003,7.653,7.681C217.028,211.233,218.269,212.54,219.647,213.689z"/>
			<path style="fill:#020B2A;" d="M324.345,340.261c-1.171-0.357-2.374-0.594-3.589-0.729c-0.79-0.088-1.584-0.132-2.378-0.166
				c0.326,0.275,0.597,0.604,0.786,1.027c0.313,0.7,0.522,1.467,0.687,2.214c1.182,5.353-0.71,11.822-5.762,14.553
				c-1.417,0.766-3.004,1.185-4.575,1.493c-0.762,0.149-1.551,0.254-2.322,0.115c-0.707-0.128-1.353-0.421-1.998-0.728
				c-0.069-0.033-0.14-0.058-0.209-0.09c0.069,0.097,0.098,0.222,0.039,0.371c-0.736,1.875-1.759,3.62-2.892,5.28
				c-2.016,2.952-4.368,5.669-6.215,8.737c-0.893,1.484-1.643,3.047-2.1,4.722c-0.27,0.99-0.419,2.003-0.489,3.026
				c-0.021,0.308-0.035,0.617-0.046,0.925c0.019,0.014,0.042,0.024,0.057,0.042c0.168,0.188,0.126,0.445-0.034,0.619
				c-0.018,0.019-0.024,0.044-0.04,0.064c-0.001,0.034-0.002,0.069-0.003,0.103c-0.005,0.374-0.006,0.753-0.032,1.129
				c0.485,1.026,1.861,1.194,2.872,1.26c1.275,0.083,2.554,0,3.809-0.24c2.478-0.472,4.849-1.535,6.832-3.097
				c4.157-3.275,5.736-8.418,8.223-12.88c1.279-2.296,2.904-4.313,4.79-6.139c1.873-1.814,3.916-3.44,5.874-5.158
				c1.93-1.693,3.859-3.496,5.289-5.644c0.687-1.033,1.251-2.206,1.257-3.47c0.006-1.387-0.79-2.629-1.684-3.626
				C328.86,342.157,326.66,340.967,324.345,340.261z"/>
			<path style="fill:#020B2A;" d="M298.889,355.625c1.466,0.144,2.94,0.317,4.363,0.714c0.681,0.19,1.336,0.443,1.975,0.745
				c0.608,0.287,1.214,0.597,1.869,0.765c0.74,0.189,1.504,0.082,2.241-0.062c0.753-0.148,1.504-0.322,2.238-0.546
				c1.346-0.411,2.613-1.037,3.688-1.953c1.913-1.632,3.153-3.944,3.713-6.376c0.32-1.392,0.42-2.855,0.294-4.278
				c-0.066-0.753-0.192-1.501-0.375-2.235c-0.165-0.661-0.341-1.407-0.717-1.985c-0.36-0.553-1.023-0.816-1.612-1.05
				c-0.082-0.033-0.168-0.057-0.251-0.088c-0.048-0.003-0.095-0.004-0.143-0.007c-0.118-0.007-0.195-0.058-0.241-0.128
				c-0.438-0.147-0.88-0.28-1.33-0.383c-1.326-0.303-2.694-0.413-4.051-0.461c-1.402-0.049-2.804-0.024-4.206-0.031
				c-1.541-0.007-3.08-0.077-4.618-0.175c-3.073-0.196-6.201-0.319-9.174-1.187c-1.455-0.425-2.882-0.976-4.375-1.259
				c-1.065-0.201-2.15-0.285-3.235-0.355c0.134,0.132,0.251,0.279,0.333,0.451c0.553,0.681,0.944,1.509,1.248,2.323
				c0.34,0.911,0.577,1.855,0.7,2.819c0.428,3.352-0.44,6.685-2.098,9.597c-0.801,1.406-1.779,2.702-2.868,3.897
				c-0.559,0.614-1.196,1.276-1.918,1.759c0.053-0.002,0.104-0.006,0.148-0.009c0.651-0.057,1.292-0.303,1.929-0.44
				c0.774-0.167,1.555-0.3,2.341-0.398c1.561-0.195,3.137-0.273,4.709-0.274C292.616,355.014,295.758,355.318,298.889,355.625z"/>
			<path style="fill:#020B2A;" d="M282.196,353.132c1.925-2.309,3.482-5.031,4.033-8.015c0.29-1.57,0.313-3.19,0.022-4.761
				c-0.145-0.783-0.362-1.552-0.669-2.287c-0.304-0.73-0.72-1.393-1.094-2.087c-0.012-0.022-0.013-0.043-0.02-0.065
				c-0.6-0.571-1.608-0.682-2.399-0.75c-2.924-0.251-5.848-0.536-8.787-0.451c-1.46,0.042-2.918,0.178-4.353,0.449
				c-0.715,0.135-1.424,0.303-2.122,0.509c-0.362,0.107-0.722,0.224-1.076,0.354c-0.051,0.019-0.102,0.039-0.153,0.058
				c-0.055,0.055-0.126,0.077-0.195,0.073c-0.213,0.081-0.427,0.154-0.657,0.182c-0.335,0.041-0.624-0.388-0.318-0.634
				c0.273-0.22,0.588-0.35,0.913-0.466c0.151-0.544,0.305-1.085,0.482-1.624c0.235-0.715,0.461-1.433,0.68-2.153
				c0.78-2.572,1.479-5.163,2.074-7.784c0.299-1.314,0.57-2.634,0.813-3.959c0.12-0.656,0.234-1.313,0.341-1.972
				c0.055-0.338,0.108-0.676,0.159-1.014c0.049-0.322,0.08-0.648,0.179-0.958c-0.772,0.2-1.547,0.391-2.338,0.494
				c-0.987,0.129-1.972,0.095-2.953-0.066c-1.895-0.31-3.745-0.899-5.611-1.345c-1.883-0.45-3.783-0.837-5.708-1.059
				c-1.919-0.221-3.832-0.219-5.759-0.14c-1.544,0.063-3.094,0.141-4.638,0.055c-0.662,3.523-1.324,7.046-1.987,10.568
				c-0.589,3.134-1.194,6.266-1.763,9.404c-0.543,2.993-0.987,6.012-0.902,9.062c0.08,2.876,0.712,5.791,2.181,8.288
				c0.678,1.154,1.548,2.193,2.54,3.089c0.97,0.877,2.088,1.568,3.227,2.202c0.095,0.053,0.125,0.141,0.111,0.226
				c0.413,0.242,0.841,0.458,1.278,0.653c0.964,0.429,1.983,0.735,3.021,0.924c1.86,0.339,3.776,0.315,5.63-0.045
				c1.183-0.23,2.34-0.575,3.516-0.837c1.169-0.261,2.355-0.409,3.548-0.497c2.434-0.181,4.879-0.251,7.317-0.365
				c2.451-0.115,4.902-0.261,7.355-0.338c0.062-0.002,0.12,0.016,0.172,0.044c0.197-0.029,0.39-0.079,0.578-0.145
				c0-0.003-0.001-0.005-0.001-0.007c-0.038-0.375,0.417-0.525,0.602-0.268c0.342-0.19,0.662-0.424,0.949-0.671
				C281.064,354.442,281.647,353.791,282.196,353.132z"/>
			<path style="fill:#020B2A;" d="M299.667,218.842c-0.106,0.431-0.281,0.844-0.527,1.22c-0.808,1.232-2.134,2.053-3.392,2.759
				c-1.516,0.85-3.033,1.698-4.517,2.602c-2.932,1.785-5.773,3.801-8.064,6.381c-1.164,1.311-2.127,2.773-2.931,4.33
				c-0.843,1.63-1.55,3.328-2.439,4.935c-0.914,1.649-2.069,3.108-3.422,4.419c-1.418,1.374-2.972,2.605-4.489,3.865
				c-3.268,2.716-6.537,5.432-9.805,8.148c-1.626,1.351-3.251,2.702-4.877,4.052c-0.821,0.683-1.643,1.365-2.464,2.048l-1.335,1.109
				c-0.338,0.281-0.677,0.604-1.087,0.777c-0.375,0.158-0.75,0.152-1.082,0.023c0,0.017,0.006,0.03,0.003,0.048
				c-0.132,0.985-0.267,1.97-0.402,2.954c-0.551,4.013-1.13,8.022-1.699,12.033c-0.571,4.029-1.154,8.057-1.731,12.086
				c-0.512,3.57-1.025,7.194-2.563,10.494c-0.667,1.432-1.454,2.809-2.035,4.28c-0.541,1.37-0.897,2.85-0.567,4.316
				c0.091,0.406,0.188,0.724,0.619,0.845c0.424,0.12,0.886,0.155,1.323,0.201c0.92,0.095,1.846,0.117,2.771,0.107
				c1.86-0.021,3.716-0.176,5.577-0.15c3.805,0.053,7.538,0.931,11.205,1.877c1.799,0.464,3.652,1.032,5.532,0.838
				c0.987-0.102,1.949-0.358,2.908-0.605c0.98-0.252,1.959-0.504,2.939-0.757c1.915-0.493,3.866-0.917,5.752-1.515
				c1.587-0.503,2.955-1.359,3.981-2.68c0.935-1.203,1.571-2.602,2.083-4.029c0.588-1.639,1.041-3.328,1.5-5.007
				c0.949-3.47,1.781-6.972,2.502-10.496c-0.053-0.09-0.069-0.205-0.003-0.326c0.038-0.069,0.076-0.138,0.114-0.207
				c0.029-0.146,0.062-0.291,0.091-0.437c0.04-0.203,0.17-0.365,0.372-0.398c0.159-0.28,0.319-0.559,0.489-0.834
				c0.153-0.247,0.461-0.216,0.65-0.047c0.79,0.703,1.537,1.452,2.238,2.244c2.851,3.219,4.978,6.982,7.143,10.674
				c0.54,0.921,1.083,1.839,1.642,2.748c0.529,0.859,1.052,1.925,2.026,2.347c0.895,0.387,1.937,0.26,2.876,0.157
				c1.119-0.124,2.234-0.283,3.343-0.476c8.564-1.494,16.766-5.05,23.709-10.282c0.88-0.663,1.741-1.353,2.579-2.069
				c0.822-0.702,1.673-1.413,2.419-2.197c0.418-0.439,0.388-0.852,0.253-1.418c-0.133-0.557-0.273-1.113-0.41-1.67
				c-0.287-1.165-0.578-2.328-0.874-3.491c-1.2-4.708-2.496-9.399-4.097-13.988c-1.583-4.534-3.48-8.947-5.789-13.16
				c-2.252-4.109-4.812-8.038-7.346-11.977c-2.533-3.936-5.05-7.893-7.211-12.05c-0.986-1.897-1.751-4.168-3.581-5.431
				c-0.941-0.65-2.008-1.125-3.023-1.646c-0.901-0.462-1.802-0.924-2.703-1.385c-0.077,0.026-0.16,0.036-0.242,0.014
				c-0.272-0.071-0.471-0.255-0.621-0.483c-0.066-0.06-0.107-0.128-0.117-0.203c-0.122-0.247-0.201-0.522-0.251-0.765
				c-0.126-0.616-0.17-1.206-0.498-1.76c-0.386-0.652-0.949-1.213-1.439-1.786c-0.264-0.309-0.52-0.623-0.778-0.937
				C299.818,219.023,299.742,218.932,299.667,218.842z"/>
			<path style="fill:#020B2A;" d="M346.167,372.167c0.417,0.25,0.833,0.497,1.29,0.686c0.682,0.283,1.393,0.502,2.122,0.624
				c2.809,0.471,5.611-0.251,7.994-1.768c1.24-0.79,2.35-1.786,3.327-2.883c0.481-0.541,0.964-1.113,1.333-1.738
				c0.362-0.612,0.592-1.292,0.23-1.952c-0.072-0.131-0.055-0.259,0.004-0.367c-0.053-0.187-0.109-0.374-0.154-0.564
				c-0.135-0.565-0.276-1.127-0.424-1.689c-0.304-1.157-0.628-2.31-0.974-3.455c-1.224-4.051-2.703-8.017-4.229-11.963
				c-0.736-1.904-1.455-3.818-2.25-5.699c-0.779-1.845-1.691-3.594-2.811-5.255c-0.106-0.157-0.067-0.32,0.035-0.442
				c-0.132-0.28-0.262-0.561-0.392-0.842c-0.285-0.62-0.566-1.242-0.842-1.867c-1.693-3.835-3.212-7.75-4.442-11.757
				c-0.113,0.012-0.231-0.044-0.268-0.195c-0.507-2.065-0.918-4.15-1.384-6.225c-0.819-3.652-1.75-7.279-2.815-10.867
				c-0.538-1.811-1.108-3.613-1.712-5.404c-0.295-0.876-0.598-1.749-0.91-2.62c-0.318-0.888-0.69-1.767-0.953-2.672
				c-0.014-0.048-0.014-0.091-0.011-0.133c-0.361,0.317-0.727,0.628-1.088,0.937c-1.704,1.458-3.5,2.807-5.368,4.049
				c-5.396,3.59-11.443,6.248-17.752,7.792c0.017,0.019,0.036,0.035,0.05,0.06c0.982,1.738,1.803,3.57,2.728,5.339
				c1.627,3.112,3.356,6.171,5.2,9.16c1.852,3.001,3.821,5.927,5.903,8.773c0.118,0.162,0.14,0.367,0.031,0.531
				c0.178,0.447,0.351,0.896,0.511,1.354c0.255,0.732,0.504,1.466,0.755,2.198c0.436,1.269,0.844,2.551,1.412,3.768
				c0.529,1.135,1.216,2.169,2.006,3.139c0.763,0.936,1.595,1.812,2.414,2.699c0.821,0.889,1.724,1.786,2.328,2.842
				c0.081,0.141,0.056,0.275-0.021,0.375c0.052,0.129,0.104,0.259,0.156,0.387c0.199,0.492,0.378,0.993,0.554,1.493
				c0.35,0.992,0.665,1.995,0.964,3.003c1.068,3.601,1.896,7.269,2.983,10.865c1.076,3.564,2.436,7.043,4.441,10.194
				C346.157,372.108,346.159,372.138,346.167,372.167z"/>
			<path style="fill:#020B2A;" d="M356.838,406.682c0.572,1.84,1.134,3.694,1.887,5.47c0.364,0.858,0.776,1.696,1.265,2.49
				c0.24,0.391,0.5,0.768,0.783,1.13c0.148,0.19,0.302,0.375,0.461,0.555c0.111,0.126,0.238,0.307,0.404,0.364
				c0.016,0.005,0.033,0.005,0.049,0.008c0.094-0.075,0.188-0.151,0.289-0.216c0.163-0.104,0.349-0.214,0.546-0.128
				c0,0,0,0,0.001,0.001c0.058-0.043,0.113-0.085,0.161-0.118c0.388-0.273,0.782-0.537,1.186-0.785
				c0.817-0.502,1.673-0.945,2.569-1.289c1.711-0.656,3.524-0.93,5.329-0.563c0.538-1.299,0.867-2.629,0.935-4.048
				c0.075-1.581-0.116-3.159-0.397-4.712c-0.601-3.322-1.495-6.602-2.365-9.861c-0.906-3.391-1.856-6.77-2.72-10.173
				c-0.861-3.388-1.625-6.801-2.185-10.253c-0.426-2.624-0.795-5.288-1.683-7.792c-0.059,0.167-0.127,0.331-0.205,0.487
				c-0.408,0.813-1.028,1.525-1.628,2.201c-2.126,2.4-4.964,4.326-8.165,4.882c-1.472,0.256-2.978,0.223-4.435-0.112
				c-0.725-0.167-1.422-0.416-2.087-0.749c-0.552-0.276-1.118-0.617-1.565-1.058c-0.05,0.139-0.075,0.288-0.081,0.437
				c-0.026,0.685,0.298,1.372,0.604,1.966c0.465,0.901,0.924,1.804,1.351,2.724c0.865,1.861,1.653,3.757,2.382,5.676
				c1.453,3.819,2.669,7.723,3.828,11.64C354.52,398.796,355.619,402.757,356.838,406.682z"/>
			<path style="fill:#020B2A;" d="M378.786,430.835c-0.901-3.571-1.265-7.249-2.085-10.837c-0.675-2.955-1.691-5.896-3.477-8.368
				c-0.212,0.936-0.551,1.833-1.071,2.643c-0.041,0.063-0.098,0.098-0.16,0.116c-0.109,0.068-0.245,0.091-0.38,0.061
				c-0.457-0.102-0.925-0.152-1.393-0.161c-1.898-0.038-3.741,0.663-5.374,1.579c-0.426,0.239-0.841,0.495-1.248,0.766
				c-0.385,0.257-0.752,0.573-1.177,0.762c-0.17,0.076-0.346,0.126-0.523,0.145c-0.064,0.086-0.13,0.169-0.183,0.263
				c-0.006,0.011-0.012,0.021-0.018,0.032c-0.009,0.022-0.019,0.043-0.028,0.065c-0.022,0.056-0.039,0.114-0.054,0.173
				c-0.001,0.006-0.002,0.014-0.004,0.022c-0.004,0.029-0.007,0.057-0.009,0.086c-0.002,0.037-0.001,0.073-0.002,0.11
				c0-0.089,0.004,0.022,0.007,0.036c0.008,0.051,0.022,0.1,0.035,0.149c0.005,0.01,0.019,0.053,0.023,0.061
				c0.015,0.033,0.031,0.066,0.049,0.098c0.002,0.004,0.016,0.027,0.025,0.044c0.01,0.013,0.032,0.044,0.036,0.049
				c0.078,0.096,0.138,0.184,0.165,0.307c0.029,0.131-0.02,0.272-0.12,0.361c-0.111,0.1-0.24,0.105-0.378,0.077
				c-0.217-0.045-0.368-0.282-0.467-0.464c-0.086-0.158-0.146-0.342-0.169-0.521c-0.046-0.363,0.025-0.703,0.193-1.025
				c0.022-0.042,0.055-0.076,0.08-0.116c-0.351-0.229-0.628-0.613-0.884-0.935c-0.6-0.755-1.109-1.571-1.552-2.423
				c-0.038,0.256-0.081,0.512-0.13,0.766c-0.301,1.545-0.763,3.06-0.986,4.62c-0.22,1.54-0.117,3.042,0.37,4.523
				c0.97,2.949,3.056,5.386,4.542,8.073c0.801,1.448,1.41,2.981,1.729,4.608c0.35,1.786,0.401,3.623,0.344,5.438
				c-0.056,1.769-0.263,3.563,0.113,5.311c0.321,1.495,1.034,2.881,1.949,4.099c0.946,1.258,2.086,2.366,3.303,3.361
				c0.608,0.497,1.234,0.98,1.882,1.423c0.638,0.436,1.315,0.826,2.073,1.007c1.458,0.347,2.936-0.354,3.96-1.365
				c1.106-1.092,1.703-2.598,2.13-4.063c0.486-1.665,0.832-3.378,1.09-5.092c0.265-1.76,0.467-3.547,0.404-5.329
				C381.291,437.709,379.67,434.338,378.786,430.835z"/>
		</g>
		<g>
			<path style="fill:#020B2A;" d="M102.637,83.469c-0.114-0.636-0.188-1.294-0.35-1.921c0.603-0.16,1.002-0.821,1.371-1.271
				c0.499-0.61,0.994-1.223,1.491-1.835c1.003-1.236,2.005-2.473,3.003-3.713c0.451-0.56,0.968-1.108,1.333-1.731
				c0.11-0.188,0.19-0.38,0.25-0.575c0.232,0.057,0.459,0.116,0.703,0.146c0.292,0.037,0.585,0.066,0.877,0.098
				c0.6,0.064,1.2,0.133,1.799,0.208c1.109,0.139,2.216,0.293,3.314,0.504c0.282,1.855,0.64,3.701,1.043,5.533
				c0.21,0.954,0.432,1.906,0.679,2.852c0.124,0.473,0.247,0.946,0.384,1.415c0.071,0.242,0.14,0.486,0.217,0.726
				c0.051,0.161,0.114,0.301,0.184,0.44c-0.218,0.191-0.377,0.494-0.538,0.717c-0.215,0.296-0.431,0.591-0.648,0.886
				c-0.443,0.601-0.893,1.198-1.348,1.79c-0.78,1.015-1.597,2.005-2.354,3.036c-0.33-0.107-0.727-0.12-1.051-0.168
				c-0.438-0.064-0.877-0.129-1.315-0.193c-0.877-0.128-1.754-0.257-2.63-0.386c-0.877-0.129-1.754-0.255-2.631-0.38
				c-0.818-0.116-1.64-0.261-2.465-0.328c-0.333-1.234-0.638-2.475-0.903-3.725C102.902,84.888,102.763,84.179,102.637,83.469z"/>
			<path style="fill:#020B2A;" d="M116.979,88.174c0.451-0.577,0.896-1.158,1.335-1.744c0.22-0.293,0.437-0.587,0.653-0.882
				c0.114-0.155,0.257-0.319,0.378-0.493c0.226,0.171,0.578,0.209,0.837,0.266c0.39,0.086,0.781,0.166,1.173,0.24
				c0.785,0.147,1.574,0.272,2.366,0.374c1.584,0.203,3.178,0.323,4.774,0.359c0.458,0.011,0.916,0.014,1.374,0.011
				c0.399-0.003,0.817,0.01,1.217-0.036c0.048,0.276,0.164,0.541,0.269,0.798c0.12,0.293,0.247,0.584,0.37,0.876
				c0.253,0.598,0.506,1.197,0.759,1.795c0.494,1.169,1.01,2.33,1.516,3.494c-0.954,0.516-1.521,1.571-2.136,2.437
				c-0.785,1.104-1.572,2.207-2.354,3.314c-0.436,0.618-0.871,1.236-1.307,1.854c-0.36,0.511-0.74,1.021-1.05,1.567
				c-0.181-0.063-0.388-0.051-0.578-0.058c-0.182-0.007-0.363-0.014-0.545-0.023c-0.378-0.018-0.756-0.039-1.134-0.064
				c-0.77-0.051-1.54-0.119-2.307-0.202c-0.752-0.082-1.503-0.178-2.252-0.286c-0.389-0.056-0.777-0.12-1.167-0.178
				c-0.166-0.025-0.368-0.077-0.566-0.101c-0.014-0.091-0.062-0.176-0.135-0.227c-0.751-1.664-1.452-3.349-2.097-5.057
				c-0.328-0.869-0.644-1.743-0.952-2.62c-0.154-0.439-0.302-0.879-0.452-1.319c-0.131-0.386-0.238-0.796-0.438-1.153
				C115.402,90.184,116.195,89.177,116.979,88.174z"/>
			<path style="fill:#020B2A;" d="M119.425,84.253c-0.009-0.156-0.022-0.309-0.06-0.473c-0.057-0.245-0.119-0.489-0.177-0.734
				c-0.11-0.46-0.226-0.918-0.335-1.377c-0.23-0.966-0.455-1.933-0.663-2.903c-0.402-1.87-0.733-3.75-1.039-5.638
				c0.341-0.167,0.662-0.41,0.977-0.61c0.387-0.246,0.776-0.49,1.166-0.731c0.755-0.466,1.519-0.917,2.281-1.372
				c1.517-0.907,3.058-1.773,4.615-2.61c0.202,0.174,0.43,0.322,0.644,0.478c0.324,0.236,0.646,0.475,0.965,0.718
				c0.615,0.468,1.22,0.951,1.814,1.446c1.198,0.998,2.35,2.053,3.458,3.15c0.595,0.589,1.174,1.193,1.74,1.809
				c-0.544,1.754-1.129,3.495-1.753,5.221c-0.323,0.894-0.658,1.783-1.004,2.668c-0.29,0.741-0.618,1.481-0.865,2.241
				c-0.374-0.031-0.76,0.009-1.135,0.014c-0.399,0.005-0.798,0.007-1.198,0.002c-0.783-0.009-1.567-0.038-2.349-0.087
				c-1.564-0.098-3.121-0.279-4.668-0.528c-0.423-0.068-0.845-0.142-1.266-0.219c-0.218-0.04-0.434-0.084-0.653-0.12
				c-0.111-0.019-0.232-0.042-0.349-0.042c0-0.002,0.001-0.005,0.002-0.007C119.593,84.421,119.524,84.314,119.425,84.253z"/>
			<path style="fill:#020B2A;" d="M133.121,89.414c-0.261-0.576-0.523-1.152-0.785-1.729c-0.131-0.288-0.259-0.577-0.392-0.864
				c-0.117-0.252-0.234-0.511-0.4-0.735c0.456-0.783,0.782-1.651,1.122-2.488c0.363-0.895,0.714-1.795,1.054-2.699
				c0.66-1.758,1.267-3.536,1.834-5.327c0.814,0.151,1.637,0.232,2.463,0.296c0.964,0.075,1.931,0.122,2.898,0.126
				c0.109,0.255,0.229,0.506,0.347,0.757c0.201,0.428,0.404,0.856,0.596,1.288c0.379,0.85,0.734,1.712,1.067,2.582
				c0.671,1.754,1.234,3.549,1.687,5.371c0.063,0.252,0.122,0.504,0.182,0.756c0.02,0.083,0.036,0.175,0.056,0.265
				c-0.156,0.19-0.261,0.42-0.377,0.636c-0.128,0.238-0.254,0.478-0.379,0.718c-0.256,0.492-0.506,0.987-0.751,1.485
				c-0.238,0.484-0.471,0.971-0.698,1.461c-0.114,0.245-0.222,0.493-0.331,0.741c-0.059,0.136-0.129,0.275-0.175,0.417
				c-0.255,0.002-0.511,0.027-0.764,0.042l-1.045,0.061c-0.665,0.039-1.33,0.077-1.995,0.116c-0.697,0.041-1.393,0.081-2.09,0.122
				c-0.518,0.03-1.049,0.048-1.557,0.168c-0.005-0.017-0.003-0.033-0.011-0.051C134.159,91.758,133.65,90.581,133.121,89.414z"/>
			<path style="fill:#020B2A;" d="M142.988,93.196c-0.054-0.17-0.105-0.366-0.27-0.459c-0.002-0.002-0.006-0.002-0.008-0.003
				c-0.004-0.014-0.011-0.027-0.016-0.041c0.055-0.099,0.099-0.206,0.15-0.316c0.113-0.246,0.23-0.491,0.344-0.736
				c0.229-0.491,0.459-0.98,0.697-1.466c0.233-0.475,0.472-0.947,0.717-1.417c0.125-0.24,0.251-0.479,0.379-0.718
				c0.08-0.15,0.179-0.305,0.261-0.465c0.242,0.103,0.53,0.037,0.705-0.178c-0.347,2.854-1.217,5.588-2.539,8.074
				c-0.023-0.23-0.051-0.46-0.086-0.69c-0.053-0.348-0.118-0.695-0.194-1.038C143.087,93.559,143.046,93.375,142.988,93.196z"/>
			<path style="fill:#020B2A;" d="M145.557,86.935c-0.012-0.053-0.024-0.112-0.022-0.104c-0.049-0.208-0.099-0.415-0.152-0.622
				c-0.105-0.414-0.217-0.827-0.333-1.238c-0.229-0.808-0.48-1.609-0.752-2.404c-0.553-1.615-1.187-3.199-1.916-4.743
				c-0.202-0.427-0.408-0.854-0.626-1.273c-0.153-0.294-0.311-0.589-0.493-0.868c0.006-0.063-0.008-0.123-0.034-0.177
				c0.111-0.324,0.144-0.688,0.191-1.017c0.066-0.467,0.126-0.934,0.176-1.403c0.048-0.453,0.09-0.908,0.126-1.362
				c0.016-0.203,0.03-0.406,0.044-0.609c1.857,2.578,3.214,5.575,3.888,8.884c0.483,2.374,0.581,4.739,0.34,7.03
				C145.906,86.892,145.715,86.818,145.557,86.935z"/>
			<path style="fill:#020B2A;" d="M141.242,70.415c-0.069,0.187-0.067,0.381-0.081,0.586c-0.014,0.212-0.03,0.424-0.046,0.637
				c-0.036,0.455-0.078,0.909-0.127,1.362c-0.048,0.453-0.1,0.906-0.158,1.359c-0.041,0.317-0.122,0.66-0.127,0.992
				c-0.868-0.006-1.734-0.024-2.601-0.076c-0.858-0.051-1.713-0.143-2.571-0.196c-0.044-0.05-0.097-0.093-0.16-0.118
				c-2.122-2.3-4.446-4.402-6.949-6.282c-0.355-0.266-0.713-0.528-1.074-0.785c-0.284-0.202-0.571-0.429-0.885-0.59
				c-0.011-0.033-0.027-0.064-0.045-0.093c0.102-0.468,0.117-0.954,0.161-1.43c0.025-0.271,0.055-0.543,0.088-0.813
				c0.017-0.135,0.034-0.27,0.053-0.405c0.007-0.049,0.014-0.094,0.019-0.137c0.082-0.014,0.165-0.03,0.25-0.062
				c0.4-0.148,0.779-0.371,1.16-0.562c0.741-0.37,1.482-0.739,2.222-1.109C134.657,64.147,138.45,66.834,141.242,70.415z"/>
			<path style="fill:#020B2A;" d="M126.373,63.743c-0.173-0.044-0.331-0.161-0.48-0.253c-0.721-0.449-1.442-0.898-2.163-1.347
				c-0.364-0.227-0.729-0.452-1.094-0.676c2.309-0.033,4.569,0.282,6.722,0.905c-0.456,0.235-0.911,0.469-1.367,0.703
				c-0.357,0.184-0.711,0.374-1.071,0.551C126.744,63.712,126.571,63.793,126.373,63.743z"/>
			<path style="fill:#020B2A;" d="M121.567,61.506c0.234,0.2,0.517,0.355,0.77,0.52c0.396,0.257,0.793,0.512,1.19,0.766
				c0.75,0.48,1.487,1.008,2.263,1.444c0.117,0.065,0.233,0.112,0.35,0.148c-0.004,0.035-0.007,0.071-0.011,0.107
				c-0.018,0.145-0.035,0.29-0.05,0.435c-0.029,0.271-0.054,0.542-0.075,0.814c-0.034,0.438-0.074,0.889-0.028,1.328
				c-0.008,0.004-0.016,0.005-0.024,0.01c-1.61,0.854-3.195,1.754-4.756,2.693c-0.774,0.466-1.535,0.957-2.292,1.45
				c-0.385,0.251-0.769,0.504-1.151,0.76c-0.321,0.215-0.685,0.423-0.974,0.687c-0.078,0.001-0.157,0.024-0.224,0.065
				c-1.119-0.141-2.234-0.304-3.353-0.44c-0.584-0.071-1.169-0.137-1.754-0.197c-0.293-0.03-0.585-0.058-0.879-0.079
				c-0.253-0.019-0.492-0.005-0.737,0.01c0.056-0.331,0.065-0.673,0.052-1.026c-0.065-1.784-0.125-3.569-0.196-5.353
				c2.525-1.772,5.443-3.068,8.654-3.721C119.42,61.706,120.497,61.571,121.567,61.506z"/>
			<path style="fill:#020B2A;" d="M108.978,66.159c0.053,1.316,0.112,2.632,0.169,3.949c0.029,0.665,0.147,1.432-0.058,2.079
				c-0.199,0.625-0.704,1.138-1.106,1.639c-0.928,1.154-1.854,2.309-2.778,3.467c-0.472,0.591-0.943,1.182-1.415,1.773
				c-0.236,0.295-0.471,0.591-0.706,0.887c-0.213,0.269-0.413,0.569-0.662,0.806c-0.439,0.417-0.84,0.17-1.257-0.132
				c-0.288-0.209-0.58-0.435-0.914-0.544C101.366,74.537,104.491,69.569,108.978,66.159z"/>
			<path style="fill:#020B2A;" d="M100.161,80.585c0.535,0.298,0.971,0.837,1.556,0.973c0.02,0.652,0.15,1.309,0.259,1.95
				c0.124,0.727,0.259,1.452,0.407,2.174c0.292,1.43,0.632,2.848,1.017,4.255c0.004,0.016,0.014,0.025,0.02,0.039
				c-0.022,0.16-0.032,0.323-0.05,0.475c-0.036,0.306-0.071,0.612-0.101,0.919c-0.06,0.613-0.104,1.228-0.145,1.843
				c-0.039,0.599-0.071,1.199-0.094,1.799c-0.012,0.308-0.022,0.616-0.031,0.924c-0.003,0.117-0.016,0.246-0.023,0.377
				c-1.254-2.139-2.188-4.513-2.71-7.075C99.668,86.298,99.664,83.374,100.161,80.585z"/>
			<path style="fill:#020B2A;" d="M103.42,97.041c0.068-0.017,0.131-0.056,0.171-0.126c0.15-0.264,0.101-0.589,0.107-0.885
				c0.007-0.308,0.015-0.616,0.026-0.924c0.021-0.616,0.051-1.231,0.088-1.846c0.036-0.6,0.083-1.198,0.132-1.797
				c0.025-0.307,0.048-0.614,0.075-0.921c0.015-0.176,0.041-0.36,0.052-0.542c0.73,0.144,1.471,0.239,2.205,0.352
				c0.876,0.135,1.753,0.267,2.629,0.398c0.877,0.131,1.753,0.261,2.63,0.392c0.438,0.065,0.877,0.131,1.315,0.196l0.611,0.091
				c0.071,0.01,0.142,0.023,0.214,0.034c0.055,0.152,0.248,0.254,0.394,0.135c0.065,0.304,0.172,0.604,0.261,0.896
				c0.135,0.444,0.278,0.886,0.424,1.327c0.297,0.899,0.613,1.792,0.945,2.678c0.635,1.696,1.327,3.37,2.067,5.023
				c-0.4,0.265-0.791,0.545-1.195,0.803c-0.557,0.355-1.12,0.7-1.694,1.025c-0.562,0.318-1.134,0.618-1.716,0.899
				c-0.291,0.141-0.583,0.277-0.877,0.41c-0.151,0.068-0.351,0.126-0.516,0.216C108.407,103.015,105.519,100.334,103.42,97.041z"/>
			<path style="fill:#020B2A;" d="M112.631,105.329c0.28-0.125,0.558-0.252,0.833-0.387c0.594-0.29,1.178-0.599,1.751-0.926
				c0.574-0.328,1.138-0.673,1.685-1.044c0.43-0.292,0.865-0.591,1.272-0.92c0.251,0.14,0.607,0.163,0.864,0.214
				c0.386,0.077,0.775,0.14,1.165,0.202c0.778,0.123,1.558,0.227,2.341,0.313c0.783,0.086,1.567,0.156,2.352,0.209
				c0.393,0.027,0.786,0.049,1.179,0.067c0.315,0.015,0.672,0.065,0.99,0.005c0.082,0.04,0.183,0.042,0.253-0.026
				c0.013-0.012,0.024-0.027,0.037-0.039c0.093,0.122,0.206,0.232,0.31,0.341c0.162,0.171,0.323,0.344,0.485,0.515
				c0.313,0.333,0.628,0.664,0.939,1c0.31,0.336,0.62,0.673,0.926,1.012c0.158,0.175,0.316,0.351,0.472,0.528
				c0.027,0.031,0.053,0.062,0.08,0.094c-0.964,0.335-1.959,0.615-2.986,0.824C122.314,108.383,117.1,107.563,112.631,105.329z"/>
			<path style="fill:#020B2A;" d="M131.282,106.227c-0.078-0.108-0.175-0.205-0.266-0.307c-0.157-0.176-0.316-0.351-0.474-0.526
				c-0.318-0.349-0.639-0.696-0.964-1.037c-0.326-0.342-0.652-0.683-0.988-1.015c-0.256-0.254-0.525-0.575-0.836-0.785
				c0.278-0.335,0.533-0.694,0.788-1.044c0.389-0.535,0.779-1.071,1.168-1.606c0.778-1.071,1.551-2.146,2.326-3.219
				c0.378-0.524,0.756-1.048,1.134-1.572c0.315-0.437,0.622-0.937,1.107-1.204c0.523-0.287,1.147-0.313,1.729-0.348
				c0.665-0.039,1.33-0.078,1.995-0.118c0.728-0.043,1.456-0.086,2.185-0.129l1.14-0.067c0.345-0.02,0.699-0.023,1.041-0.08
				c0.006,0.049,0.014,0.098,0.022,0.148c0.031,0.185,0.073,0.368,0.108,0.553c0.065,0.346,0.118,0.695,0.16,1.045
				c0.04,0.342,0.068,0.686,0.09,1.03c0.009,0.13,0.012,0.373,0.073,0.564C140.216,100.852,136.207,104.332,131.282,106.227z"/>
		</g>
	</g>
</g>
</svg>
