<svg width="12.000000" height="12.000000" viewBox="0 0 12 12" fill="none" xmlns="http://www.w3.org/2000/svg" xmlns:xlink="http://www.w3.org/1999/xlink">
	<desc>
			Created with Pixso.
	</desc>
	<defs>
		<clipPath id="clip4601_3370">
			<rect id="multiply 1" rx="0.000000" width="11.000000" height="11.000000" transform="translate(0.500000 0.500000)" fill="white" fill-opacity="0"/>
		</clipPath>
	</defs>
	<rect id="multiply 1" rx="0.000000" width="11.000000" height="11.000000" transform="translate(0.500000 0.500000)" fill="#FFFFFF" fill-opacity="0"/>
	<g clip-path="url(#clip4601_3370)">
		<path id="Vector" d="M6.7 5.99L11.85 0.85C12.04 0.65 12.04 0.34 11.85 0.14C11.65 -0.05 11.34 -0.05 11.14 0.14L6 5.29L0.85 0.14C0.65 -0.05 0.34 -0.05 0.14 0.14C-0.05 0.34 -0.05 0.65 0.14 0.85L5.29 5.99L0.14 11.14C-0.05 11.34 -0.05 11.65 0.14 11.85C0.34 12.04 0.65 12.04 0.85 11.85L6 6.7L11.14 11.85C11.34 12.04 11.65 12.04 11.85 11.85C12.04 11.65 12.04 11.34 11.85 11.14L6.7 5.99Z" fill="#8D8BA2" fill-opacity="1.000000" fill-rule="nonzero"/>
	</g>
</svg>
