<svg width="18" height="18" viewBox="0 0 18 18" fill="none" xmlns="http://www.w3.org/2000/svg">
<g clip-path="url(#clip0_4695_1199)">
<path d="M13.7812 15.1875H4.21801C1.89221 15.1875 0 13.2953 0 10.9695V5.20312C0 2.87691 1.89253 0.984375 4.21875 0.984375H7.38281C7.77115 0.984375 8.08594 1.29916 8.08594 1.6875C8.08594 2.07584 7.77115 2.39062 7.38281 2.39062H4.21875C2.66794 2.39062 1.40625 3.65231 1.40625 5.20312V10.9695C1.40625 12.5199 2.66762 13.7812 4.21801 13.7812H13.7812C15.3321 13.7812 16.5938 12.5196 16.5938 10.9688V10.0195C16.5938 9.6312 16.9085 9.31641 17.2969 9.31641C17.6852 9.31641 18 9.6312 18 10.0195V10.9688C18 13.295 16.1075 15.1875 13.7812 15.1875ZM9.91905 9.0753L9.98262 9.01174C10.3248 8.66953 10.845 8.5841 11.277 8.79922C11.9194 9.11907 12.6134 9.28125 13.3392 9.28121H13.3437C14.578 9.28121 15.7405 8.80597 16.6174 7.94292C17.497 7.0772 17.9879 5.92056 17.9998 4.68605C18.0118 3.43308 17.5353 2.25524 16.6581 1.36951C15.7834 0.486352 14.6119 0 13.3594 0C12.1154 0 10.9456 0.489445 10.0654 1.37813C9.18605 2.26593 8.70796 3.43941 8.71893 4.6825L8.71875 8.57809C8.71875 8.86247 8.89003 9.11886 9.15279 9.22774C9.2398 9.26378 9.33114 9.28129 9.42173 9.28129C9.60469 9.28125 9.78455 9.20981 9.91905 9.0753ZM10.125 7.36084L10.1252 4.67933C10.1252 4.67708 10.1252 4.67483 10.1251 4.67255C10.1168 3.80623 10.4504 2.98772 11.0645 2.3677C11.6786 1.74769 12.4936 1.40625 13.3594 1.40625C14.2337 1.40625 15.0504 1.74463 15.6589 2.35909C16.27 2.97615 16.602 3.79772 16.5936 4.67255C16.5766 6.43876 15.1189 7.87511 13.343 7.875C13.342 7.875 13.3408 7.875 13.3399 7.875C12.8329 7.875 12.3497 7.76243 11.9037 7.54038C11.5452 7.36189 11.16 7.27509 10.7777 7.27509C10.5572 7.27513 10.3378 7.30399 10.125 7.36084ZM13.0781 17.2969C13.0781 16.9085 12.7633 16.5938 12.375 16.5938H5.625C5.23666 16.5938 4.92188 16.9085 4.92188 17.2969C4.92188 17.6852 5.23666 18 5.625 18H12.375C12.7633 18 13.0781 17.6852 13.0781 17.2969Z" fill="#8D8BA2"/>
</g>
<defs>
<clipPath id="clip0_4695_1199">
<rect width="18" height="18" fill="white"/>
</clipPath>
</defs>
</svg>
