<svg width="18" height="18" viewBox="0 0 18 18" fill="none" xmlns="http://www.w3.org/2000/svg">
<g clip-path="url(#clip0_4684_1224)">
<path d="M9 0.42041L0 8.23621L0.921305 9.29708L1.76389 8.56534V15.4719C1.76389 16.634 2.70935 17.5795 3.87151 17.5795H7.80571V10.6946H10.2646V17.5795H14.1285C15.2906 17.5795 16.2361 16.634 16.2361 15.4719V8.56537L17.0787 9.29712L18 8.23624L9 0.42041ZM14.8311 15.4719C14.8311 15.8592 14.5159 16.1744 14.1285 16.1744H11.6697V9.28956H6.40062V16.1744H3.87148C3.48409 16.1744 3.16895 15.8593 3.16895 15.4719V7.34517L9 2.28137L14.8311 7.34517V15.4719Z" fill="#7AB0FF"/>
</g>
<defs>
<clipPath id="clip0_4684_1224">
<rect width="18" height="18" fill="white"/>
</clipPath>
</defs>
</svg>
