<svg width="19" height="19" viewBox="0 0 19 19" fill="none" xmlns="http://www.w3.org/2000/svg">
<g clip-path="url(#clip0_4601_3363)">
<path d="M16.2174 2.78261C12.5072 -0.927549 6.49195 -0.927549 2.78257 2.78268C-0.927549 6.49281 -0.927549 12.5081 2.78272 16.2174C6.49195 19.9276 12.5072 19.9276 16.2174 16.2174C19.9276 12.5081 19.9276 6.49281 16.2174 2.78261ZM15.0979 15.0977C12.006 18.1896 6.99334 18.1896 3.90231 15.0979C0.810432 12.0067 0.810432 6.99404 3.90224 3.90224C6.99334 0.810395 12.006 0.810395 15.0978 3.90224C18.1896 6.99408 18.1896 12.0067 15.0979 15.0977Z" fill="#7AB0FF"/>
<path d="M9.79165 4C9.35443 4 9 4.35443 9 4.79165V12.7083C9 13.1455 9.35443 13.5 9.79165 13.5C10.2289 13.5 10.5833 13.1455 10.5833 12.7083V4.79165C10.5833 4.35443 10.2289 4 9.79165 4Z" fill="#7AB0FF"/>
<path d="M9.49991 14.25C9.06291 14.25 8.70825 14.6047 8.70825 15.0417C8.70825 15.4787 9.06291 15.8333 9.49991 15.8333C9.93691 15.8333 10.2916 15.4787 10.2916 15.0417C10.2916 14.6047 9.93691 14.25 9.49991 14.25Z" fill="#7AB0FF"/>
</g>
<defs>
<clipPath id="clip0_4601_3363">
<rect width="19" height="19" fill="white"/>
</clipPath>
</defs>
</svg>
