<svg width="20" height="20" viewBox="0 0 20 20" fill="none" xmlns="http://www.w3.org/2000/svg">
<g clip-path="url(#clip0_4604_3689)">
<path fill-rule="evenodd" clip-rule="evenodd" d="M18.5355 1.46447C20 2.92893 20 5.28595 20 10C20 14.714 20 17.0711 18.5355 18.5355C17.0711 20 14.714 20 10 20C5.28595 20 2.92893 20 1.46447 18.5355C0 17.0711 0 14.714 0 10C0 5.28595 0 2.92893 1.46447 1.46447C2.92893 0 5.28595 0 10 0C14.714 0 17.0711 0 18.5355 1.46447ZM4 5.44381C4 6.24118 4.64502 6.88761 5.44393 6.88761C6.23956 6.88761 6.88458 6.2379 6.88458 5.44381C6.88458 4.64643 6.23956 4 5.44393 4C4.64502 4 4 4.64643 4 5.44381ZM6.68813 16V7.98031H4.19973V16H6.68813ZM16 16H13.5149V12.1017C13.5149 11.1731 13.4985 9.97539 12.2216 9.97539C10.9282 9.97539 10.7318 10.9893 10.7318 12.0361V16H8.24993V7.98031H10.6336V9.07629H10.6663C10.997 8.44627 11.809 7.78015 13.0172 7.78015C15.5351 7.78015 16 9.44053 16 11.5997V16Z" fill="white"/>
</g>
<defs>
<clipPath id="clip0_4604_3689">
<rect width="20" height="20" fill="white"/>
</clipPath>
</defs>
</svg>
