<svg width="18" height="18" viewBox="0 0 18 18" fill="none" xmlns="http://www.w3.org/2000/svg">
<g clip-path="url(#clip0_4684_1211)">
<path d="M7.594 13.1467C6.8201 13.1467 6.04628 12.9039 5.40039 12.4181L3.09375 10.6883C2.78307 10.4553 2.72011 10.0146 2.95309 9.70394C3.18607 9.3933 3.62675 9.33027 3.93746 9.56328L6.24491 11.2937C7.03944 11.8913 8.14809 11.8913 8.94178 11.2943L11.25 9.56328C11.5606 9.33027 12.0014 9.3933 12.2344 9.70394C12.4674 10.0146 12.4044 10.4553 12.0937 10.6883L9.7863 12.4187C9.14115 12.904 8.36754 13.1467 7.594 13.1467ZM15.1875 13.0086V9.31543C15.1875 6.98921 13.295 5.09668 10.9688 5.09668H4.21875C1.89253 5.09668 0 6.98921 0 9.31543V13.0086C0 15.3348 1.89253 17.2274 4.21875 17.2274H10.9688C13.295 17.2273 15.1875 15.3348 15.1875 13.0086ZM10.9688 6.50293C12.5196 6.50293 13.7812 7.76462 13.7812 9.31543V13.0086C13.7812 14.5594 12.5196 15.8211 10.9688 15.8211H4.21875C2.66794 15.8211 1.40625 14.5594 1.40625 13.0086V9.31543C1.40625 7.76462 2.66794 6.50293 4.21875 6.50293H10.9688ZM18 10.4756V4.99121C18 2.66499 16.1075 0.772461 13.7812 0.772461H7.03125C5.65017 0.772461 4.35445 1.45041 3.56523 2.58603C3.34361 2.9049 3.42243 3.34305 3.74133 3.56468C4.06016 3.78627 4.49835 3.70745 4.71997 3.38858C5.24647 2.631 6.11051 2.17871 7.03125 2.17871H13.7812C15.3321 2.17871 16.5938 3.4404 16.5938 4.99121V10.4756C16.5938 10.8639 16.9085 11.1787 17.2969 11.1787C17.6852 11.1787 18 10.8639 18 10.4756Z" fill="#8D8BA2"/>
</g>
<defs>
<clipPath id="clip0_4684_1211">
<rect width="18" height="18" fill="white"/>
</clipPath>
</defs>
</svg>
