<svg width="18.000000" height="18.000000" viewBox="0 0 18 18" fill="none" xmlns="http://www.w3.org/2000/svg" xmlns:xlink="http://www.w3.org/1999/xlink">
	<desc>
			Created with Pixso.
	</desc>
	<defs>
		<clipPath id="clip223_76">
			<rect id="settings (1) 1" rx="0.000000" width="17.000000" height="17.000000" transform="translate(0.500000 0.500000)" fill="white" fill-opacity="0"/>
		</clipPath>
	</defs>
	<rect id="settings (1) 1" rx="0.000000" width="17.000000" height="17.000000" transform="translate(0.500000 0.500000)" fill="#FFFFFF" fill-opacity="0"/>
	<g clip-path="url(#clip223_76)">
		<path id="Vector" d="M17.25 14.25L15.25 14.25C14.92 13.16 13.93 12.37 12.75 12.37C11.56 12.37 10.57 13.16 10.24 14.25L0.75 14.25C0.33 14.25 0 14.58 0 15C0 15.41 0.33 15.75 0.75 15.75L10.24 15.75C10.57 16.83 11.56 17.62 12.75 17.62C13.93 17.62 14.92 16.83 15.25 15.75L17.25 15.75C17.66 15.75 18 15.41 18 15C18 14.58 17.66 14.25 17.25 14.25ZM12.75 16.12C12.12 16.12 11.62 15.62 11.62 15C11.62 14.37 12.12 13.87 12.75 13.87C13.37 13.87 13.87 14.37 13.87 15C13.87 15.62 13.37 16.12 12.75 16.12Z" fill="#8D8BA2" fill-opacity="1.000000" fill-rule="nonzero"/>
		<path id="Vector" d="M17.25 2.25L15.25 2.25C14.92 1.16 13.93 0.37 12.75 0.37C11.56 0.37 10.57 1.16 10.24 2.25L0.75 2.25C0.33 2.25 0 2.58 0 3C0 3.41 0.33 3.75 0.75 3.75L10.24 3.75C10.57 4.83 11.56 5.62 12.75 5.62C13.93 5.62 14.92 4.83 15.25 3.75L17.25 3.75C17.66 3.75 18 3.41 18 3C18 2.58 17.66 2.25 17.25 2.25ZM12.75 4.12C12.12 4.12 11.62 3.62 11.62 3C11.62 2.37 12.12 1.87 12.75 1.87C13.37 1.87 13.87 2.37 13.87 3C13.87 3.62 13.37 4.12 12.75 4.12Z" fill="#8D8BA2" fill-opacity="1.000000" fill-rule="nonzero"/>
		<path id="Vector" d="M16.35 8.25L6.85 8.25C6.52 7.16 5.53 6.37 4.34 6.37C3.16 6.37 2.17 7.16 1.84 8.25L-0.16 8.25C-0.57 8.25 -0.91 8.58 -0.91 9C-0.91 9.41 -0.57 9.75 -0.16 9.75L1.84 9.75C2.17 10.83 3.16 11.62 4.34 11.62C5.53 11.62 6.52 10.83 6.85 9.75L16.35 9.75C16.76 9.75 17.1 9.41 17.1 9C17.1 8.58 16.76 8.25 16.35 8.25ZM4.34 10.12C3.72 10.12 3.22 9.62 3.22 9C3.22 8.37 3.72 7.87 4.34 7.87C4.97 7.87 5.47 8.37 5.47 9C5.47 9.62 4.97 10.12 4.34 10.12Z" fill="#8D8BA2" fill-opacity="1.000000" fill-rule="nonzero"/>
	</g>
</svg>
