<svg width="18" height="18" viewBox="0 0 18 18" fill="none" xmlns="http://www.w3.org/2000/svg">
<path d="M15.2227 18C14.8343 18 14.5195 17.6852 14.5195 17.2969C14.5195 14.5442 12.28 12.3047 9.52734 12.3047H8.47266C5.71996 12.3047 3.48047 14.5442 3.48047 17.2969C3.48047 17.6852 3.16568 18 2.77734 18C2.38901 18 2.07422 17.6852 2.07422 17.2969C2.07422 13.7688 4.94455 10.8984 8.47266 10.8984H9.52734C13.0554 10.8984 15.9258 13.7688 15.9258 17.2969C15.9258 17.6852 15.611 18 15.2227 18Z" fill="#8D8BA2"/>
<path d="M8.92969 9.49219C6.31269 9.49219 4.18359 7.36309 4.18359 4.74609C4.18359 2.1291 6.31269 0 8.92969 0C11.5467 0 13.6758 2.1291 13.6758 4.74609C13.6758 7.36309 11.5467 9.49219 8.92969 9.49219ZM8.92969 1.40625C7.0881 1.40625 5.58984 2.9045 5.58984 4.74609C5.58984 6.58768 7.0881 8.08594 8.92969 8.08594C10.7713 8.08594 12.2695 6.58768 12.2695 4.74609C12.2695 2.9045 10.7713 1.40625 8.92969 1.40625Z" fill="#8D8BA2"/>
</svg>
