<svg width="20" height="20" viewBox="0 0 20 20" fill="none" xmlns="http://www.w3.org/2000/svg">
<g clip-path="url(#clip0_4604_3691)">
<path fill-rule="evenodd" clip-rule="evenodd" d="M1.40589 1.40589C0 2.81177 0 5.0745 0 9.6V10.4C0 14.9255 0 17.1882 1.40589 18.5941C2.81177 20 5.0745 20 9.6 20H10.4C14.9255 20 17.1882 20 18.5941 18.5941C20 17.1882 20 14.9255 20 10.4V9.6C20 5.0745 20 2.81177 18.5941 1.40589C17.1882 0 14.9255 0 10.4 0H9.6C5.0745 0 2.81177 0 1.40589 1.40589ZM3 5C3.1218 11.2462 6.04497 15 11.1699 15H11.4604V11.4264C13.3436 11.6266 14.7676 13.0981 15.3391 15H18C17.2692 12.1572 15.3484 10.5856 14.1492 9.98498C15.3484 9.24424 17.0349 7.44244 17.4378 5H15.0205C14.4958 6.98198 12.9407 8.78378 11.4604 8.95395V5H9.04305V11.9269C7.54398 11.5265 5.65146 9.58458 5.56714 5H3Z" fill="white"/>
</g>
<defs>
<clipPath id="clip0_4604_3691">
<rect width="20" height="20" fill="white"/>
</clipPath>
</defs>
</svg>
