<svg width="27.000000" height="27.000000" viewBox="0 0 27 27" fill="none" xmlns="http://www.w3.org/2000/svg" xmlns:xlink="http://www.w3.org/1999/xlink">
	<desc>
			Created with Pixso.
	</desc>
	<defs>
		<clipPath id="clip4601_3273">
			<rect id="question (1) 1" rx="0.000000" width="26.000000" height="26.000000" transform="translate(0.500000 0.500000)" fill="white" fill-opacity="0"/>
		</clipPath>
	</defs>
	<rect id="question (1) 1" rx="0.000000" width="26.000000" height="26.000000" transform="translate(0.500000 0.500000)" fill="#FFFFFF" fill-opacity="0"/>
	<g clip-path="url(#clip4601_3273)">
		<path id="Vector" d="M13.49 20.25C12.87 20.25 12.37 20.75 12.37 21.37C12.37 21.99 12.87 22.5 13.49 22.5C14.12 22.5 14.62 21.99 14.62 21.37C14.62 20.75 14.12 20.25 13.49 20.25Z" fill="#7AB0FF" fill-opacity="1.000000" fill-rule="nonzero"/>
		<path id="Vector" d="M23.04 3.95C17.77 -1.32 9.22 -1.32 3.95 3.95C-1.32 9.22 -1.32 17.77 3.95 23.04C9.22 28.31 17.77 28.31 23.04 23.04C28.31 17.77 28.31 9.22 23.04 3.95ZM21.45 21.45C17.06 25.84 9.93 25.84 5.54 21.45C1.15 17.06 1.15 9.93 5.54 5.54C9.93 1.15 17.06 1.15 21.45 5.54C25.84 9.93 25.84 17.06 21.45 21.45Z" fill="#7AB0FF" fill-opacity="1.000000" fill-rule="nonzero"/>
		<path id="Vector" d="M14.3 4.57C11.51 4.08 8.99 6.2 8.99 9C8.99 9.62 9.5 10.12 10.12 10.12C10.74 10.12 11.24 9.62 11.24 9C11.24 7.6 12.5 6.53 13.91 6.78C14.8 6.94 15.55 7.69 15.71 8.58C15.88 9.57 15.42 10.5 14.58 10.97C13.19 11.73 12.37 13.27 12.37 14.91L12.37 16.87C12.37 17.49 12.87 18 13.49 18C14.12 18 14.62 17.49 14.62 16.87L14.62 14.91C14.62 14.05 15.03 13.29 15.66 12.94C17.34 12.02 18.27 10.14 17.92 8.19C17.6 6.37 16.12 4.89 14.3 4.57Z" fill="#7AB0FF" fill-opacity="1.000000" fill-rule="nonzero"/>
	</g>
</svg>
