<svg width="27.000000" height="27.000000" viewBox="0 0 27 27" fill="none" xmlns="http://www.w3.org/2000/svg" xmlns:xlink="http://www.w3.org/1999/xlink">
	<desc>
			Created with Pixso.
	</desc>
	<defs>
		<clipPath id="clip4601_3253">
			<rect id="user (5) 1" rx="0.000000" width="26.000000" height="26.000000" transform="translate(0.500000 0.500000)" fill="white" fill-opacity="0"/>
		</clipPath>
	</defs>
	<rect id="user (5) 1" rx="0.000000" width="26.000000" height="26.000000" transform="translate(0.500000 0.500000)" fill="#FFFFFF" fill-opacity="0"/>
	<g clip-path="url(#clip4601_3253)">
		<path id="Vector" d="M22.06 18.03L21.86 17.97L18 17.1L18 15.12C19.41 13.86 20.25 12.06 20.25 10.12L20.25 6.21C20.25 2.78 17.46 0 14.03 0L12.96 0C9.53 0 6.75 2.78 6.75 6.21L6.75 10.12C6.75 12.06 7.58 13.86 9 15.12L9 17.1L5.13 17.97L4.93 18.03C3.3 18.73 2.25 20.33 2.25 22.1L2.25 24.42C2.25 24.94 2.59 25.39 3.09 25.51L4.95 25.99C10.54 27.33 16.41 27.33 22.02 25.99L23.9 25.51C24.4 25.39 24.75 24.94 24.75 24.42L24.75 22.1C24.75 20.33 23.69 18.73 22.06 18.03ZM22.5 23.55L21.48 23.81C16.23 25.06 10.73 25.06 5.49 23.8L4.5 23.55L4.5 22.1C4.5 21.26 4.98 20.5 5.73 20.14L10.37 19.09C10.88 18.98 11.25 18.52 11.25 18L11.25 14.59C11.25 14.24 11.08 13.91 10.8 13.7C9.67 12.84 9 11.54 9 10.12L9 6.21C9 4.02 10.77 2.25 12.96 2.25L14.03 2.25C16.22 2.25 18 4.02 18 6.21L18 10.12C18 11.54 17.32 12.84 16.19 13.7C15.91 13.91 15.75 14.24 15.75 14.59L15.75 18C15.75 18.52 16.11 18.98 16.62 19.09L21.26 20.14C22.01 20.5 22.5 21.26 22.5 22.1L22.5 23.55L22.5 23.55Z" fill="#7AB0FF" fill-opacity="1.000000" fill-rule="nonzero"/>
	</g>
</svg>
