<svg width="27.000000" height="27.000000" viewBox="0 0 27 27" fill="none" xmlns="http://www.w3.org/2000/svg" xmlns:xlink="http://www.w3.org/1999/xlink">
	<desc>
			Created with Pixso.
	</desc>
	<defs>
		<clipPath id="clip4601_3262">
			<rect id="video-camera 1" rx="0.000000" width="26.000000" height="26.000000" transform="translate(0.500000 0.500000)" fill="white" fill-opacity="0"/>
		</clipPath>
	</defs>
	<rect id="video-camera 1" rx="0.000000" width="26.000000" height="26.000000" transform="translate(0.500000 0.500000)" fill="#FFFFFF" fill-opacity="0"/>
	<g clip-path="url(#clip4601_3262)">
		<path id="Vector" d="M25.07 2.58L20.25 7.41L20.25 5.62C20.25 3.76 18.73 2.25 16.87 2.25L3.37 2.25C1.51 2.25 0 3.76 0 5.62L0 14.62C0 16.49 1.51 18 3.37 18L8.3 18L5.74 23.12C5.46 23.67 5.69 24.35 6.24 24.63C6.8 24.91 7.47 24.68 7.75 24.12L10.12 19.39L12.49 24.12C12.77 24.68 13.44 24.91 14 24.63C14.55 24.35 14.78 23.67 14.5 23.12L11.94 18L16.87 18C18.73 18 20.25 16.49 20.25 14.62L20.25 12.84L25.07 17.67C25.78 18.38 27 17.87 27 16.87L27 3.37C27 2.37 25.78 1.87 25.07 2.58ZM18 14.62C18 15.24 17.49 15.75 16.87 15.75L3.37 15.75C2.75 15.75 2.25 15.24 2.25 14.62L2.25 5.62C2.25 5 2.75 4.5 3.37 4.5L16.87 4.5C17.49 4.5 18 5 18 5.62L18 14.62ZM24.75 14.16L20.71 10.12L24.75 6.09L24.75 14.16Z" fill="#7AB0FF" fill-opacity="1.000000" fill-rule="nonzero"/>
		<path id="Vector" d="M6.75 5.62C4.88 5.62 3.37 7.13 3.37 9C3.37 10.86 4.88 12.37 6.75 12.37C8.61 12.37 10.12 10.86 10.12 9C10.12 7.13 8.61 5.62 6.75 5.62ZM6.75 10.12C6.12 10.12 5.62 9.62 5.62 9C5.62 8.37 6.12 7.87 6.75 7.87C7.37 7.87 7.87 8.37 7.87 9C7.87 9.62 7.37 10.12 6.75 10.12Z" fill="#7AB0FF" fill-opacity="1.000000" fill-rule="nonzero"/>
	</g>
</svg>
